<?xml version="1.0" encoding="utf-8" standalone="no"?>
<!DOCTYPE svg PUBLIC "-//W3C//DTD SVG 1.1//EN"
  "http://www.w3.org/Graphics/SVG/1.1/DTD/svg11.dtd">
<!-- Created with matplotlib (https://matplotlib.org/) -->
<svg height="1440pt" version="1.1" viewBox="0 0 1440 1440" width="1440pt" xmlns="http://www.w3.org/2000/svg" xmlns:xlink="http://www.w3.org/1999/xlink">
 <defs>
  <style type="text/css">
*{stroke-linecap:butt;stroke-linejoin:round;white-space:pre;}
  </style>
 </defs>
 <g id="figure_1">
  <g id="patch_1">
   <path d="M 0 1440 
L 1440 1440 
L 1440 0 
L 0 0 
z
" style="fill:#f0f0f0;"/>
  </g>
  <g id="axes_1">
   <g id="patch_2">
    <path d="M 115.2 394.434783 
L 1382.4 394.434783 
L 1382.4 144 
L 115.2 144 
z
" style="fill:#f0f0f0;"/>
   </g>
   <g id="matplotlib.axis_1">
    <g id="xtick_1">
     <g id="line2d_1">
      <path clip-path="url(#pb9c6cf05f8)" d="M 115.2 394.434783 
L 115.2 144 
" style="fill:none;stroke:#b0b0b0;stroke-linecap:square;stroke-width:0.8;"/>
     </g>
     <g id="line2d_2">
      <defs>
       <path d="M 0 0 
L 0 3.5 
" id="mc072e8b9f9" style="stroke:#000000;stroke-width:0.8;"/>
      </defs>
      <g>
       <use style="stroke:#000000;stroke-width:0.8;" x="115.2" xlink:href="#mc072e8b9f9" y="394.434783"/>
      </g>
     </g>
     <g id="text_1">
      <!-- 0 -->
      <defs>
       <path d="M 31.78125 66.40625 
Q 24.171875 66.40625 20.328125 58.90625 
Q 16.5 51.421875 16.5 36.375 
Q 16.5 21.390625 20.328125 13.890625 
Q 24.171875 6.390625 31.78125 6.390625 
Q 39.453125 6.390625 43.28125 13.890625 
Q 47.125 21.390625 47.125 36.375 
Q 47.125 51.421875 43.28125 58.90625 
Q 39.453125 66.40625 31.78125 66.40625 
z
M 31.78125 74.21875 
Q 44.046875 74.21875 50.515625 64.515625 
Q 56.984375 54.828125 56.984375 36.375 
Q 56.984375 17.96875 50.515625 8.265625 
Q 44.046875 -1.421875 31.78125 -1.421875 
Q 19.53125 -1.421875 13.0625 8.265625 
Q 6.59375 17.96875 6.59375 36.375 
Q 6.59375 54.828125 13.0625 64.515625 
Q 19.53125 74.21875 31.78125 74.21875 
z
" id="DejaVuSans-48"/>
      </defs>
      <g style="fill:#303030;" transform="translate(110.74625 412.072595)scale(0.14 -0.14)">
       <use xlink:href="#DejaVuSans-48"/>
      </g>
     </g>
    </g>
    <g id="xtick_2">
     <g id="line2d_3">
      <path clip-path="url(#pb9c6cf05f8)" d="M 281.936842 394.434783 
L 281.936842 144 
" style="fill:none;stroke:#b0b0b0;stroke-linecap:square;stroke-width:0.8;"/>
     </g>
     <g id="line2d_4">
      <g>
       <use style="stroke:#000000;stroke-width:0.8;" x="281.936842" xlink:href="#mc072e8b9f9" y="394.434783"/>
      </g>
     </g>
     <g id="text_2">
      <!-- 25 -->
      <defs>
       <path d="M 19.1875 8.296875 
L 53.609375 8.296875 
L 53.609375 0 
L 7.328125 0 
L 7.328125 8.296875 
Q 12.9375 14.109375 22.625 23.890625 
Q 32.328125 33.6875 34.8125 36.53125 
Q 39.546875 41.84375 41.421875 45.53125 
Q 43.3125 49.21875 43.3125 52.78125 
Q 43.3125 58.59375 39.234375 62.25 
Q 35.15625 65.921875 28.609375 65.921875 
Q 23.96875 65.921875 18.8125 64.3125 
Q 13.671875 62.703125 7.8125 59.421875 
L 7.8125 69.390625 
Q 13.765625 71.78125 18.9375 73 
Q 24.125 74.21875 28.421875 74.21875 
Q 39.75 74.21875 46.484375 68.546875 
Q 53.21875 62.890625 53.21875 53.421875 
Q 53.21875 48.921875 51.53125 44.890625 
Q 49.859375 40.875 45.40625 35.40625 
Q 44.1875 33.984375 37.640625 27.21875 
Q 31.109375 20.453125 19.1875 8.296875 
z
" id="DejaVuSans-50"/>
       <path d="M 10.796875 72.90625 
L 49.515625 72.90625 
L 49.515625 64.59375 
L 19.828125 64.59375 
L 19.828125 46.734375 
Q 21.96875 47.46875 24.109375 47.828125 
Q 26.265625 48.1875 28.421875 48.1875 
Q 40.625 48.1875 47.75 41.5 
Q 54.890625 34.8125 54.890625 23.390625 
Q 54.890625 11.625 47.5625 5.09375 
Q 40.234375 -1.421875 26.90625 -1.421875 
Q 22.3125 -1.421875 17.546875 -0.640625 
Q 12.796875 0.140625 7.71875 1.703125 
L 7.71875 11.625 
Q 12.109375 9.234375 16.796875 8.0625 
Q 21.484375 6.890625 26.703125 6.890625 
Q 35.15625 6.890625 40.078125 11.328125 
Q 45.015625 15.765625 45.015625 23.390625 
Q 45.015625 31 40.078125 35.4375 
Q 35.15625 39.890625 26.703125 39.890625 
Q 22.75 39.890625 18.8125 39.015625 
Q 14.890625 38.140625 10.796875 36.28125 
z
" id="DejaVuSans-53"/>
      </defs>
      <g style="fill:#303030;" transform="translate(273.029342 412.072595)scale(0.14 -0.14)">
       <use xlink:href="#DejaVuSans-50"/>
       <use x="63.623047" xlink:href="#DejaVuSans-53"/>
      </g>
     </g>
    </g>
    <g id="xtick_3">
     <g id="line2d_5">
      <path clip-path="url(#pb9c6cf05f8)" d="M 448.673684 394.434783 
L 448.673684 144 
" style="fill:none;stroke:#b0b0b0;stroke-linecap:square;stroke-width:0.8;"/>
     </g>
     <g id="line2d_6">
      <g>
       <use style="stroke:#000000;stroke-width:0.8;" x="448.673684" xlink:href="#mc072e8b9f9" y="394.434783"/>
      </g>
     </g>
     <g id="text_3">
      <!-- 50 -->
      <g style="fill:#303030;" transform="translate(439.766184 412.072595)scale(0.14 -0.14)">
       <use xlink:href="#DejaVuSans-53"/>
       <use x="63.623047" xlink:href="#DejaVuSans-48"/>
      </g>
     </g>
    </g>
    <g id="xtick_4">
     <g id="line2d_7">
      <path clip-path="url(#pb9c6cf05f8)" d="M 615.410526 394.434783 
L 615.410526 144 
" style="fill:none;stroke:#b0b0b0;stroke-linecap:square;stroke-width:0.8;"/>
     </g>
     <g id="line2d_8">
      <g>
       <use style="stroke:#000000;stroke-width:0.8;" x="615.410526" xlink:href="#mc072e8b9f9" y="394.434783"/>
      </g>
     </g>
     <g id="text_4">
      <!-- 75 -->
      <defs>
       <path d="M 8.203125 72.90625 
L 55.078125 72.90625 
L 55.078125 68.703125 
L 28.609375 0 
L 18.3125 0 
L 43.21875 64.59375 
L 8.203125 64.59375 
z
" id="DejaVuSans-55"/>
      </defs>
      <g style="fill:#303030;" transform="translate(606.503026 412.072595)scale(0.14 -0.14)">
       <use xlink:href="#DejaVuSans-55"/>
       <use x="63.623047" xlink:href="#DejaVuSans-53"/>
      </g>
     </g>
    </g>
    <g id="xtick_5">
     <g id="line2d_9">
      <path clip-path="url(#pb9c6cf05f8)" d="M 782.147368 394.434783 
L 782.147368 144 
" style="fill:none;stroke:#b0b0b0;stroke-linecap:square;stroke-width:0.8;"/>
     </g>
     <g id="line2d_10">
      <g>
       <use style="stroke:#000000;stroke-width:0.8;" x="782.147368" xlink:href="#mc072e8b9f9" y="394.434783"/>
      </g>
     </g>
     <g id="text_5">
      <!-- 100 -->
      <defs>
       <path d="M 12.40625 8.296875 
L 28.515625 8.296875 
L 28.515625 63.921875 
L 10.984375 60.40625 
L 10.984375 69.390625 
L 28.421875 72.90625 
L 38.28125 72.90625 
L 38.28125 8.296875 
L 54.390625 8.296875 
L 54.390625 0 
L 12.40625 0 
z
" id="DejaVuSans-49"/>
      </defs>
      <g style="fill:#303030;" transform="translate(768.786118 412.072595)scale(0.14 -0.14)">
       <use xlink:href="#DejaVuSans-49"/>
       <use x="63.623047" xlink:href="#DejaVuSans-48"/>
       <use x="127.246094" xlink:href="#DejaVuSans-48"/>
      </g>
     </g>
    </g>
    <g id="xtick_6">
     <g id="line2d_11">
      <path clip-path="url(#pb9c6cf05f8)" d="M 948.884211 394.434783 
L 948.884211 144 
" style="fill:none;stroke:#b0b0b0;stroke-linecap:square;stroke-width:0.8;"/>
     </g>
     <g id="line2d_12">
      <g>
       <use style="stroke:#000000;stroke-width:0.8;" x="948.884211" xlink:href="#mc072e8b9f9" y="394.434783"/>
      </g>
     </g>
     <g id="text_6">
      <!-- 125 -->
      <g style="fill:#303030;" transform="translate(935.522961 412.072595)scale(0.14 -0.14)">
       <use xlink:href="#DejaVuSans-49"/>
       <use x="63.623047" xlink:href="#DejaVuSans-50"/>
       <use x="127.246094" xlink:href="#DejaVuSans-53"/>
      </g>
     </g>
    </g>
    <g id="xtick_7">
     <g id="line2d_13">
      <path clip-path="url(#pb9c6cf05f8)" d="M 1115.621053 394.434783 
L 1115.621053 144 
" style="fill:none;stroke:#b0b0b0;stroke-linecap:square;stroke-width:0.8;"/>
     </g>
     <g id="line2d_14">
      <g>
       <use style="stroke:#000000;stroke-width:0.8;" x="1115.621053" xlink:href="#mc072e8b9f9" y="394.434783"/>
      </g>
     </g>
     <g id="text_7">
      <!-- 150 -->
      <g style="fill:#303030;" transform="translate(1102.259803 412.072595)scale(0.14 -0.14)">
       <use xlink:href="#DejaVuSans-49"/>
       <use x="63.623047" xlink:href="#DejaVuSans-53"/>
       <use x="127.246094" xlink:href="#DejaVuSans-48"/>
      </g>
     </g>
    </g>
    <g id="xtick_8">
     <g id="line2d_15">
      <path clip-path="url(#pb9c6cf05f8)" d="M 1282.357895 394.434783 
L 1282.357895 144 
" style="fill:none;stroke:#b0b0b0;stroke-linecap:square;stroke-width:0.8;"/>
     </g>
     <g id="line2d_16">
      <g>
       <use style="stroke:#000000;stroke-width:0.8;" x="1282.357895" xlink:href="#mc072e8b9f9" y="394.434783"/>
      </g>
     </g>
     <g id="text_8">
      <!-- 175 -->
      <g style="fill:#303030;" transform="translate(1268.996645 412.072595)scale(0.14 -0.14)">
       <use xlink:href="#DejaVuSans-49"/>
       <use x="63.623047" xlink:href="#DejaVuSans-55"/>
       <use x="127.246094" xlink:href="#DejaVuSans-53"/>
      </g>
     </g>
    </g>
   </g>
   <g id="matplotlib.axis_2">
    <g id="ytick_1">
     <g id="line2d_17">
      <path clip-path="url(#pb9c6cf05f8)" d="M 115.2 383.051383 
L 1382.4 383.051383 
" style="fill:none;stroke:#b0b0b0;stroke-linecap:square;stroke-width:0.8;"/>
     </g>
     <g id="line2d_18">
      <defs>
       <path d="M 0 0 
L -3.5 0 
" id="m114921d0dc" style="stroke:#000000;stroke-width:0.8;"/>
      </defs>
      <g>
       <use style="stroke:#000000;stroke-width:0.8;" x="115.2" xlink:href="#m114921d0dc" y="383.051383"/>
      </g>
     </g>
     <g id="text_9">
      <!-- 0.0 -->
      <defs>
       <path d="M 10.6875 12.40625 
L 21 12.40625 
L 21 0 
L 10.6875 0 
z
" id="DejaVuSans-46"/>
      </defs>
      <g style="fill:#303030;" transform="translate(85.935625 388.37029)scale(0.14 -0.14)">
       <use xlink:href="#DejaVuSans-48"/>
       <use x="63.623047" xlink:href="#DejaVuSans-46"/>
       <use x="95.410156" xlink:href="#DejaVuSans-48"/>
      </g>
     </g>
    </g>
    <g id="ytick_2">
     <g id="line2d_19">
      <path clip-path="url(#pb9c6cf05f8)" d="M 115.2 333.692274 
L 1382.4 333.692274 
" style="fill:none;stroke:#b0b0b0;stroke-linecap:square;stroke-width:0.8;"/>
     </g>
     <g id="line2d_20">
      <g>
       <use style="stroke:#000000;stroke-width:0.8;" x="115.2" xlink:href="#m114921d0dc" y="333.692274"/>
      </g>
     </g>
     <g id="text_10">
      <!-- 0.5 -->
      <g style="fill:#303030;" transform="translate(85.935625 339.01118)scale(0.14 -0.14)">
       <use xlink:href="#DejaVuSans-48"/>
       <use x="63.623047" xlink:href="#DejaVuSans-46"/>
       <use x="95.410156" xlink:href="#DejaVuSans-53"/>
      </g>
     </g>
    </g>
    <g id="ytick_3">
     <g id="line2d_21">
      <path clip-path="url(#pb9c6cf05f8)" d="M 115.2 284.333164 
L 1382.4 284.333164 
" style="fill:none;stroke:#b0b0b0;stroke-linecap:square;stroke-width:0.8;"/>
     </g>
     <g id="line2d_22">
      <g>
       <use style="stroke:#000000;stroke-width:0.8;" x="115.2" xlink:href="#m114921d0dc" y="284.333164"/>
      </g>
     </g>
     <g id="text_11">
      <!-- 1.0 -->
      <g style="fill:#303030;" transform="translate(85.935625 289.652071)scale(0.14 -0.14)">
       <use xlink:href="#DejaVuSans-49"/>
       <use x="63.623047" xlink:href="#DejaVuSans-46"/>
       <use x="95.410156" xlink:href="#DejaVuSans-48"/>
      </g>
     </g>
    </g>
    <g id="ytick_4">
     <g id="line2d_23">
      <path clip-path="url(#pb9c6cf05f8)" d="M 115.2 234.974055 
L 1382.4 234.974055 
" style="fill:none;stroke:#b0b0b0;stroke-linecap:square;stroke-width:0.8;"/>
     </g>
     <g id="line2d_24">
      <g>
       <use style="stroke:#000000;stroke-width:0.8;" x="115.2" xlink:href="#m114921d0dc" y="234.974055"/>
      </g>
     </g>
     <g id="text_12">
      <!-- 1.5 -->
      <g style="fill:#303030;" transform="translate(85.935625 240.292961)scale(0.14 -0.14)">
       <use xlink:href="#DejaVuSans-49"/>
       <use x="63.623047" xlink:href="#DejaVuSans-46"/>
       <use x="95.410156" xlink:href="#DejaVuSans-53"/>
      </g>
     </g>
    </g>
    <g id="ytick_5">
     <g id="line2d_25">
      <path clip-path="url(#pb9c6cf05f8)" d="M 115.2 185.614945 
L 1382.4 185.614945 
" style="fill:none;stroke:#b0b0b0;stroke-linecap:square;stroke-width:0.8;"/>
     </g>
     <g id="line2d_26">
      <g>
       <use style="stroke:#000000;stroke-width:0.8;" x="115.2" xlink:href="#m114921d0dc" y="185.614945"/>
      </g>
     </g>
     <g id="text_13">
      <!-- 2.0 -->
      <g style="fill:#303030;" transform="translate(85.935625 190.933852)scale(0.14 -0.14)">
       <use xlink:href="#DejaVuSans-50"/>
       <use x="63.623047" xlink:href="#DejaVuSans-46"/>
       <use x="95.410156" xlink:href="#DejaVuSans-48"/>
      </g>
     </g>
    </g>
    <g id="text_14">
     <!-- train_loss -->
     <defs>
      <path d="M 24.796875 61.296875 
L 24.796875 50 
L 48.40625 50 
Q 49.203125 50 49.703125 49.5 
Q 50.203125 49 50.203125 48.203125 
L 50.203125 44.59375 
Q 50.203125 43.796875 49.703125 43.296875 
Q 49.203125 42.796875 48.40625 42.796875 
L 24.796875 42.796875 
L 24.796875 15.90625 
Q 24.796875 11.796875 27.390625 9 
Q 30 6.203125 34.796875 6.203125 
Q 39 6.203125 41.390625 8.640625 
Q 43.796875 11.09375 44.203125 14 
Q 44.40625 15.703125 45.90625 15.703125 
L 50.40625 15.703125 
Q 51.203125 15.703125 51.703125 15.140625 
Q 52.203125 14.59375 52.203125 13.90625 
Q 52.203125 11.59375 51.296875 9.25 
Q 50.40625 6.90625 48.546875 4.5 
Q 46.703125 2.09375 43.046875 0.546875 
Q 39.40625 -1 34.59375 -1 
Q 25.703125 -1 21.203125 3.59375 
Q 16.703125 8.203125 16.703125 15.09375 
L 16.703125 42.796875 
L 9.296875 42.796875 
Q 8.59375 42.796875 8.046875 43.296875 
Q 7.5 43.796875 7.5 44.59375 
L 7.5 48.203125 
Q 7.5 49 8.046875 49.5 
Q 8.59375 50 9.296875 50 
L 16.703125 50 
L 16.703125 61.296875 
Q 16.703125 63.09375 19 63.09375 
L 22.59375 63.09375 
Q 24.796875 63.09375 24.796875 61.296875 
z
" id="DecimaMonoPro-116"/>
      <path d="M 37.203125 51 
Q 44.09375 51 48.140625 46.453125 
Q 52.203125 41.90625 52.203125 37.5 
Q 52.203125 35.703125 50.5 35.703125 
L 45.90625 35.703125 
Q 44.296875 35.703125 44.09375 37.40625 
Q 43.796875 39.796875 41.75 41.796875 
Q 39.703125 43.796875 36.59375 43.796875 
Q 32.40625 43.796875 29.203125 40.796875 
Q 26 37.796875 26 34 
L 26 7.203125 
L 45.09375 7.203125 
Q 45.796875 7.203125 46.34375 6.703125 
Q 46.90625 6.203125 46.90625 5.40625 
L 46.90625 1.796875 
Q 46.90625 1 46.34375 0.5 
Q 45.796875 0 45.09375 0 
L 9.296875 0 
Q 8.59375 0 8.046875 0.5 
Q 7.5 1 7.5 1.796875 
L 7.5 5.40625 
Q 7.5 6.203125 8.046875 6.703125 
Q 8.59375 7.203125 9.296875 7.203125 
L 18 7.203125 
L 18 48.203125 
Q 18 50 20.296875 50 
L 23.5 50 
Q 25.796875 50 25.796875 48.203125 
L 25.796875 45.703125 
Q 29.796875 51 37.203125 51 
z
" id="DecimaMonoPro-114"/>
      <path d="M 40.5 24.40625 
L 27.40625 23.5 
Q 23.5 23.203125 20.890625 20.75 
Q 18.296875 18.296875 18.296875 14.703125 
Q 18.296875 11.203125 21.140625 8.703125 
Q 24 6.203125 28.09375 6.203125 
Q 33.40625 6.203125 36.953125 9.25 
Q 40.5 12.296875 40.5 15.703125 
z
M 48.59375 34.796875 
L 48.59375 1.796875 
Q 48.59375 0 46.296875 0 
L 43.09375 0 
Q 40.796875 0 40.796875 1.796875 
L 40.796875 4.40625 
Q 40.296875 3.796875 39.34375 2.890625 
Q 38.40625 2 35.046875 0.5 
Q 31.703125 -1 27.703125 -1 
Q 20.5 -1 15.390625 3.453125 
Q 10.296875 7.90625 10.296875 14.59375 
Q 10.296875 21.09375 15.09375 25.640625 
Q 19.90625 30.203125 26.796875 30.703125 
L 40.5 31.59375 
L 40.5 34.203125 
Q 40.5 38.09375 37.796875 40.890625 
Q 35.09375 43.703125 30.703125 43.703125 
Q 26.90625 43.703125 24.40625 42.09375 
Q 21.90625 40.5 21 38.09375 
Q 20.203125 36.40625 19.203125 36.40625 
L 15 36.40625 
Q 14.203125 36.40625 13.703125 36.90625 
Q 13.203125 37.40625 13.203125 38.203125 
Q 13.203125 42.09375 18.203125 46.546875 
Q 23.203125 51 30.703125 51 
Q 39.296875 51 43.9375 46.390625 
Q 48.59375 41.796875 48.59375 34.796875 
z
" id="DecimaMonoPro-97"/>
      <path d="M 13 50 
L 34.40625 50 
Q 35.203125 50 35.703125 49.5 
Q 36.203125 49 36.203125 48.203125 
L 36.203125 7.203125 
L 49.703125 7.203125 
Q 50.40625 7.203125 50.953125 6.703125 
Q 51.5 6.203125 51.5 5.40625 
L 51.5 1.796875 
Q 51.5 1 50.953125 0.5 
Q 50.40625 0 49.703125 0 
L 12.5 0 
Q 11.796875 0 11.25 0.5 
Q 10.703125 1 10.703125 1.796875 
L 10.703125 5.40625 
Q 10.703125 6.203125 11.25 6.703125 
Q 11.796875 7.203125 12.5 7.203125 
L 28.203125 7.203125 
L 28.203125 42.796875 
L 13 42.796875 
Q 12.203125 42.796875 11.703125 43.296875 
Q 11.203125 43.796875 11.203125 44.59375 
L 11.203125 48.203125 
Q 11.203125 49 11.703125 49.5 
Q 12.203125 50 13 50 
z
M 36.40625 66.296875 
L 36.40625 62 
Q 36.40625 61 35.75 60.34375 
Q 35.09375 59.703125 34.09375 59.703125 
L 29.5 59.703125 
Q 28.5 59.703125 27.84375 60.34375 
Q 27.203125 61 27.203125 62 
L 27.203125 66.296875 
Q 27.203125 67.296875 27.84375 67.9375 
Q 28.5 68.59375 29.5 68.59375 
L 34.09375 68.59375 
Q 35.09375 68.59375 35.75 67.9375 
Q 36.40625 67.296875 36.40625 66.296875 
z
" id="DecimaMonoPro-105"/>
      <path d="M 50 32.40625 
L 50 1.796875 
Q 50 0 47.703125 0 
L 44.296875 0 
Q 42 0 42 1.796875 
L 42 32.703125 
Q 42 37.5 39.09375 40.640625 
Q 36.203125 43.796875 30.90625 43.796875 
Q 26.09375 43.796875 22.34375 40.546875 
Q 18.59375 37.296875 18.59375 33.5 
L 18.59375 1.796875 
Q 18.59375 0 16.296875 0 
L 12.90625 0 
Q 10.59375 0 10.59375 1.796875 
L 10.59375 48.203125 
Q 10.59375 50 12.90625 50 
L 16.09375 50 
Q 18.40625 50 18.40625 48.203125 
L 18.40625 45.5 
Q 24.09375 51 31.796875 51 
Q 40.296875 51 45.140625 45.75 
Q 50 40.5 50 32.40625 
z
" id="DecimaMonoPro-110"/>
      <path d="M 0.09375 -7.5 
L 59.90625 -7.5 
Q 60.59375 -7.5 61.140625 -8.046875 
Q 61.703125 -8.59375 61.703125 -9.296875 
L 61.703125 -12.59375 
Q 61.703125 -13.40625 61.140625 -13.90625 
Q 60.59375 -14.40625 59.90625 -14.40625 
L 0.09375 -14.40625 
Q -0.59375 -14.40625 -1.140625 -13.90625 
Q -1.703125 -13.40625 -1.703125 -12.59375 
L -1.703125 -9.296875 
Q -1.703125 -8.59375 -1.140625 -8.046875 
Q -0.59375 -7.5 0.09375 -7.5 
z
" id="DecimaMonoPro-95"/>
      <path d="M 15.90625 70.09375 
L 32.90625 70.09375 
Q 33.59375 70.09375 34.140625 69.546875 
Q 34.703125 69 34.703125 68.296875 
L 34.703125 7.203125 
L 48.90625 7.203125 
Q 49.59375 7.203125 50.140625 6.703125 
Q 50.703125 6.203125 50.703125 5.40625 
L 50.703125 1.796875 
Q 50.703125 1 50.140625 0.5 
Q 49.59375 0 48.90625 0 
L 13.09375 0 
Q 12.40625 0 11.84375 0.5 
Q 11.296875 1 11.296875 1.796875 
L 11.296875 5.40625 
Q 11.296875 6.203125 11.84375 6.703125 
Q 12.40625 7.203125 13.09375 7.203125 
L 26.703125 7.203125 
L 26.703125 62.90625 
L 15.90625 62.90625 
Q 15.203125 62.90625 14.640625 63.453125 
Q 14.09375 64 14.09375 64.703125 
L 14.09375 68.296875 
Q 14.09375 69 14.640625 69.546875 
Q 15.203125 70.09375 15.90625 70.09375 
z
" id="DecimaMonoPro-108"/>
      <path d="M 49.796875 32.59375 
L 49.796875 17.40625 
Q 49.796875 9.703125 44.25 4.34375 
Q 38.703125 -1 30 -1 
Q 21.09375 -1 15.59375 4.34375 
Q 10.09375 9.703125 10.09375 17.5 
L 10.09375 32.59375 
Q 10.09375 40.296875 15.640625 45.640625 
Q 21.203125 51 30 51 
Q 38.703125 51 44.25 45.59375 
Q 49.796875 40.203125 49.796875 32.59375 
z
M 41.59375 16.90625 
L 41.59375 33.09375 
Q 41.59375 37.59375 38.4375 40.75 
Q 35.296875 43.90625 30 43.90625 
Q 24.703125 43.90625 21.453125 40.75 
Q 18.203125 37.59375 18.203125 33.09375 
L 18.203125 17 
Q 18.203125 12.5 21.453125 9.296875 
Q 24.703125 6.09375 30 6.09375 
Q 35.296875 6.09375 38.4375 9.25 
Q 41.59375 12.40625 41.59375 16.90625 
z
" id="DecimaMonoPro-111"/>
      <path d="M 30.09375 -1 
Q 25.296875 -1 21.546875 0.59375 
Q 17.796875 2.203125 15.84375 4.59375 
Q 13.90625 7 12.953125 9.390625 
Q 12 11.796875 12 14 
Q 12 14.796875 12.5 15.296875 
Q 13 15.796875 13.796875 15.796875 
L 18.296875 15.796875 
Q 19.90625 15.796875 20.09375 14.09375 
Q 20.40625 11.203125 22.796875 8.703125 
Q 25.203125 6.203125 30.09375 6.203125 
Q 34.296875 6.203125 36.890625 8.296875 
Q 39.5 10.40625 39.5 13.59375 
Q 39.5 16.5 36.84375 18.5 
Q 34.203125 20.5 30.390625 21.84375 
Q 26.59375 23.203125 22.84375 24.796875 
Q 19.09375 26.40625 16.4375 29.5 
Q 13.796875 32.59375 13.796875 37.09375 
Q 13.796875 43.296875 18.4375 47.140625 
Q 23.09375 51 30.703125 51 
Q 38.90625 51 43.25 46.5 
Q 47.59375 42 47.59375 37.5 
Q 47.59375 36.796875 47.09375 36.25 
Q 46.59375 35.703125 45.796875 35.703125 
L 41.203125 35.703125 
Q 39.703125 35.703125 39.40625 37.40625 
Q 38.90625 40 36.75 41.890625 
Q 34.59375 43.796875 30.703125 43.796875 
Q 26.90625 43.796875 24.546875 42.09375 
Q 22.203125 40.40625 22.203125 37.703125 
Q 22.203125 35 24.84375 33.09375 
Q 27.5 31.203125 31.25 29.890625 
Q 35 28.59375 38.703125 26.9375 
Q 42.40625 25.296875 45.046875 21.84375 
Q 47.703125 18.40625 47.703125 13.40625 
Q 47.703125 7.40625 42.59375 3.203125 
Q 37.5 -1 30.09375 -1 
z
" id="DecimaMonoPro-115"/>
     </defs>
     <g style="opacity:0.75;" transform="translate(79.415625 311.217391)rotate(-90)scale(0.14 -0.14)">
      <use xlink:href="#DecimaMonoPro-116"/>
      <use x="59.999985" xlink:href="#DecimaMonoPro-114"/>
      <use x="119.999969" xlink:href="#DecimaMonoPro-97"/>
      <use x="179.999954" xlink:href="#DecimaMonoPro-105"/>
      <use x="239.999939" xlink:href="#DecimaMonoPro-110"/>
      <use x="299.999924" xlink:href="#DecimaMonoPro-95"/>
      <use x="359.999908" xlink:href="#DecimaMonoPro-108"/>
      <use x="419.999893" xlink:href="#DecimaMonoPro-111"/>
      <use x="479.999878" xlink:href="#DecimaMonoPro-115"/>
      <use x="539.999863" xlink:href="#DecimaMonoPro-115"/>
     </g>
    </g>
   </g>
   <g id="line2d_27">
    <path clip-path="url(#pb9c6cf05f8)" d="M 115.2 155.383399 
L 181.894737 157.321892 
L 248.589474 159.997235 
L 315.284211 165.045009 
L 381.978947 171.617392 
L 448.673684 175.546205 
L 515.368421 175.188901 
L 582.063158 182.246601 
L 648.757895 184.051196 
L 715.452632 189.750501 
L 782.147368 193.07814 
L 848.842105 195.123287 
L 915.536842 197.221309 
L 982.231579 193.344605 
L 1048.926316 200.652119 
L 1115.621053 195.105353 
L 1182.315789 202.140952 
L 1249.010526 205.051328 
L 1315.705263 210.181761 
L 1382.4 203.688473 
" style="fill:none;stroke:#ff0000;stroke-width:3;"/>
   </g>
   <g id="line2d_28">
    <path clip-path="url(#pb9c6cf05f8)" d="M 115.2 383.051383 
L 1382.4 383.051383 
" style="fill:none;stroke:#000000;stroke-opacity:0.7;stroke-width:1.3;"/>
   </g>
   <g id="patch_3">
    <path d="M 115.2 394.434783 
L 115.2 144 
" style="fill:none;stroke:#000000;stroke-linecap:square;stroke-linejoin:miter;stroke-width:0.8;"/>
   </g>
   <g id="patch_4">
    <path d="M 1382.4 394.434783 
L 1382.4 144 
" style="fill:none;stroke:#000000;stroke-linecap:square;stroke-linejoin:miter;stroke-width:0.8;"/>
   </g>
   <g id="patch_5">
    <path d="M 115.2 394.434783 
L 1382.4 394.434783 
" style="fill:none;stroke:#000000;stroke-linecap:square;stroke-linejoin:miter;stroke-width:0.8;"/>
   </g>
   <g id="patch_6">
    <path d="M 115.2 144 
L 1382.4 144 
" style="fill:none;stroke:#000000;stroke-linecap:square;stroke-linejoin:miter;stroke-width:0.8;"/>
   </g>
   <g id="legend_1">
    <g id="patch_7">
     <path d="M 1267.8 173.8 
L 1372.6 173.8 
Q 1375.4 173.8 1375.4 171 
L 1375.4 153.8 
Q 1375.4 151 1372.6 151 
L 1267.8 151 
Q 1265 151 1265 153.8 
L 1265 171 
Q 1265 173.8 1267.8 173.8 
z
" style="fill:#f0f0f0;opacity:0.8;stroke:#cccccc;stroke-linejoin:miter;stroke-width:0.5;"/>
    </g>
    <g id="line2d_29">
     <path d="M 1270.6 161.5 
L 1298.6 161.5 
" style="fill:none;stroke:#ff0000;stroke-width:3;"/>
    </g>
    <g id="line2d_30"/>
    <g id="text_15">
     <!-- train_loss -->
     <g style="opacity:0.75;" transform="translate(1309.8 166.4)scale(0.1 -0.1)">
      <use xlink:href="#DecimaMonoPro-116"/>
      <use x="59.999985" xlink:href="#DecimaMonoPro-114"/>
      <use x="119.999969" xlink:href="#DecimaMonoPro-97"/>
      <use x="179.999954" xlink:href="#DecimaMonoPro-105"/>
      <use x="239.999939" xlink:href="#DecimaMonoPro-110"/>
      <use x="299.999924" xlink:href="#DecimaMonoPro-95"/>
      <use x="359.999908" xlink:href="#DecimaMonoPro-108"/>
      <use x="419.999893" xlink:href="#DecimaMonoPro-111"/>
      <use x="479.999878" xlink:href="#DecimaMonoPro-115"/>
      <use x="539.999863" xlink:href="#DecimaMonoPro-115"/>
     </g>
    </g>
   </g>
  </g>
  <g id="axes_2">
   <g id="patch_8">
    <path d="M 115.2 694.956522 
L 1382.4 694.956522 
L 1382.4 444.521739 
L 115.2 444.521739 
z
" style="fill:#f0f0f0;"/>
   </g>
   <g id="matplotlib.axis_3">
    <g id="xtick_9">
     <g id="line2d_31">
      <path clip-path="url(#p165310aeff)" d="M 115.2 694.956522 
L 115.2 444.521739 
" style="fill:none;stroke:#b0b0b0;stroke-linecap:square;stroke-width:0.8;"/>
     </g>
     <g id="line2d_32">
      <g>
       <use style="stroke:#000000;stroke-width:0.8;" x="115.2" xlink:href="#mc072e8b9f9" y="694.956522"/>
      </g>
     </g>
     <g id="text_16">
      <!-- 0 -->
      <g style="fill:#303030;" transform="translate(110.74625 712.594334)scale(0.14 -0.14)">
       <use xlink:href="#DejaVuSans-48"/>
      </g>
     </g>
    </g>
    <g id="xtick_10">
     <g id="line2d_33">
      <path clip-path="url(#p165310aeff)" d="M 281.936842 694.956522 
L 281.936842 444.521739 
" style="fill:none;stroke:#b0b0b0;stroke-linecap:square;stroke-width:0.8;"/>
     </g>
     <g id="line2d_34">
      <g>
       <use style="stroke:#000000;stroke-width:0.8;" x="281.936842" xlink:href="#mc072e8b9f9" y="694.956522"/>
      </g>
     </g>
     <g id="text_17">
      <!-- 25 -->
      <g style="fill:#303030;" transform="translate(273.029342 712.594334)scale(0.14 -0.14)">
       <use xlink:href="#DejaVuSans-50"/>
       <use x="63.623047" xlink:href="#DejaVuSans-53"/>
      </g>
     </g>
    </g>
    <g id="xtick_11">
     <g id="line2d_35">
      <path clip-path="url(#p165310aeff)" d="M 448.673684 694.956522 
L 448.673684 444.521739 
" style="fill:none;stroke:#b0b0b0;stroke-linecap:square;stroke-width:0.8;"/>
     </g>
     <g id="line2d_36">
      <g>
       <use style="stroke:#000000;stroke-width:0.8;" x="448.673684" xlink:href="#mc072e8b9f9" y="694.956522"/>
      </g>
     </g>
     <g id="text_18">
      <!-- 50 -->
      <g style="fill:#303030;" transform="translate(439.766184 712.594334)scale(0.14 -0.14)">
       <use xlink:href="#DejaVuSans-53"/>
       <use x="63.623047" xlink:href="#DejaVuSans-48"/>
      </g>
     </g>
    </g>
    <g id="xtick_12">
     <g id="line2d_37">
      <path clip-path="url(#p165310aeff)" d="M 615.410526 694.956522 
L 615.410526 444.521739 
" style="fill:none;stroke:#b0b0b0;stroke-linecap:square;stroke-width:0.8;"/>
     </g>
     <g id="line2d_38">
      <g>
       <use style="stroke:#000000;stroke-width:0.8;" x="615.410526" xlink:href="#mc072e8b9f9" y="694.956522"/>
      </g>
     </g>
     <g id="text_19">
      <!-- 75 -->
      <g style="fill:#303030;" transform="translate(606.503026 712.594334)scale(0.14 -0.14)">
       <use xlink:href="#DejaVuSans-55"/>
       <use x="63.623047" xlink:href="#DejaVuSans-53"/>
      </g>
     </g>
    </g>
    <g id="xtick_13">
     <g id="line2d_39">
      <path clip-path="url(#p165310aeff)" d="M 782.147368 694.956522 
L 782.147368 444.521739 
" style="fill:none;stroke:#b0b0b0;stroke-linecap:square;stroke-width:0.8;"/>
     </g>
     <g id="line2d_40">
      <g>
       <use style="stroke:#000000;stroke-width:0.8;" x="782.147368" xlink:href="#mc072e8b9f9" y="694.956522"/>
      </g>
     </g>
     <g id="text_20">
      <!-- 100 -->
      <g style="fill:#303030;" transform="translate(768.786118 712.594334)scale(0.14 -0.14)">
       <use xlink:href="#DejaVuSans-49"/>
       <use x="63.623047" xlink:href="#DejaVuSans-48"/>
       <use x="127.246094" xlink:href="#DejaVuSans-48"/>
      </g>
     </g>
    </g>
    <g id="xtick_14">
     <g id="line2d_41">
      <path clip-path="url(#p165310aeff)" d="M 948.884211 694.956522 
L 948.884211 444.521739 
" style="fill:none;stroke:#b0b0b0;stroke-linecap:square;stroke-width:0.8;"/>
     </g>
     <g id="line2d_42">
      <g>
       <use style="stroke:#000000;stroke-width:0.8;" x="948.884211" xlink:href="#mc072e8b9f9" y="694.956522"/>
      </g>
     </g>
     <g id="text_21">
      <!-- 125 -->
      <g style="fill:#303030;" transform="translate(935.522961 712.594334)scale(0.14 -0.14)">
       <use xlink:href="#DejaVuSans-49"/>
       <use x="63.623047" xlink:href="#DejaVuSans-50"/>
       <use x="127.246094" xlink:href="#DejaVuSans-53"/>
      </g>
     </g>
    </g>
    <g id="xtick_15">
     <g id="line2d_43">
      <path clip-path="url(#p165310aeff)" d="M 1115.621053 694.956522 
L 1115.621053 444.521739 
" style="fill:none;stroke:#b0b0b0;stroke-linecap:square;stroke-width:0.8;"/>
     </g>
     <g id="line2d_44">
      <g>
       <use style="stroke:#000000;stroke-width:0.8;" x="1115.621053" xlink:href="#mc072e8b9f9" y="694.956522"/>
      </g>
     </g>
     <g id="text_22">
      <!-- 150 -->
      <g style="fill:#303030;" transform="translate(1102.259803 712.594334)scale(0.14 -0.14)">
       <use xlink:href="#DejaVuSans-49"/>
       <use x="63.623047" xlink:href="#DejaVuSans-53"/>
       <use x="127.246094" xlink:href="#DejaVuSans-48"/>
      </g>
     </g>
    </g>
    <g id="xtick_16">
     <g id="line2d_45">
      <path clip-path="url(#p165310aeff)" d="M 1282.357895 694.956522 
L 1282.357895 444.521739 
" style="fill:none;stroke:#b0b0b0;stroke-linecap:square;stroke-width:0.8;"/>
     </g>
     <g id="line2d_46">
      <g>
       <use style="stroke:#000000;stroke-width:0.8;" x="1282.357895" xlink:href="#mc072e8b9f9" y="694.956522"/>
      </g>
     </g>
     <g id="text_23">
      <!-- 175 -->
      <g style="fill:#303030;" transform="translate(1268.996645 712.594334)scale(0.14 -0.14)">
       <use xlink:href="#DejaVuSans-49"/>
       <use x="63.623047" xlink:href="#DejaVuSans-55"/>
       <use x="127.246094" xlink:href="#DejaVuSans-53"/>
      </g>
     </g>
    </g>
   </g>
   <g id="matplotlib.axis_4">
    <g id="ytick_6">
     <g id="line2d_47">
      <path clip-path="url(#p165310aeff)" d="M 115.2 683.573123 
L 1382.4 683.573123 
" style="fill:none;stroke:#b0b0b0;stroke-linecap:square;stroke-width:0.8;"/>
     </g>
     <g id="line2d_48">
      <g>
       <use style="stroke:#000000;stroke-width:0.8;" x="115.2" xlink:href="#m114921d0dc" y="683.573123"/>
      </g>
     </g>
     <g id="text_24">
      <!-- 0 -->
      <g style="fill:#303030;" transform="translate(99.2925 688.892029)scale(0.14 -0.14)">
       <use xlink:href="#DejaVuSans-48"/>
      </g>
     </g>
    </g>
    <g id="ytick_7">
     <g id="line2d_49">
      <path clip-path="url(#p165310aeff)" d="M 115.2 649.289003 
L 1382.4 649.289003 
" style="fill:none;stroke:#b0b0b0;stroke-linecap:square;stroke-width:0.8;"/>
     </g>
     <g id="line2d_50">
      <g>
       <use style="stroke:#000000;stroke-width:0.8;" x="115.2" xlink:href="#m114921d0dc" y="649.289003"/>
      </g>
     </g>
     <g id="text_25">
      <!-- 5 -->
      <g style="fill:#303030;" transform="translate(99.2925 654.607909)scale(0.14 -0.14)">
       <use xlink:href="#DejaVuSans-53"/>
      </g>
     </g>
    </g>
    <g id="ytick_8">
     <g id="line2d_51">
      <path clip-path="url(#p165310aeff)" d="M 115.2 615.004883 
L 1382.4 615.004883 
" style="fill:none;stroke:#b0b0b0;stroke-linecap:square;stroke-width:0.8;"/>
     </g>
     <g id="line2d_52">
      <g>
       <use style="stroke:#000000;stroke-width:0.8;" x="115.2" xlink:href="#m114921d0dc" y="615.004883"/>
      </g>
     </g>
     <g id="text_26">
      <!-- 10 -->
      <g style="fill:#303030;" transform="translate(90.385 620.323789)scale(0.14 -0.14)">
       <use xlink:href="#DejaVuSans-49"/>
       <use x="63.623047" xlink:href="#DejaVuSans-48"/>
      </g>
     </g>
    </g>
    <g id="ytick_9">
     <g id="line2d_53">
      <path clip-path="url(#p165310aeff)" d="M 115.2 580.720763 
L 1382.4 580.720763 
" style="fill:none;stroke:#b0b0b0;stroke-linecap:square;stroke-width:0.8;"/>
     </g>
     <g id="line2d_54">
      <g>
       <use style="stroke:#000000;stroke-width:0.8;" x="115.2" xlink:href="#m114921d0dc" y="580.720763"/>
      </g>
     </g>
     <g id="text_27">
      <!-- 15 -->
      <g style="fill:#303030;" transform="translate(90.385 586.039669)scale(0.14 -0.14)">
       <use xlink:href="#DejaVuSans-49"/>
       <use x="63.623047" xlink:href="#DejaVuSans-53"/>
      </g>
     </g>
    </g>
    <g id="ytick_10">
     <g id="line2d_55">
      <path clip-path="url(#p165310aeff)" d="M 115.2 546.436643 
L 1382.4 546.436643 
" style="fill:none;stroke:#b0b0b0;stroke-linecap:square;stroke-width:0.8;"/>
     </g>
     <g id="line2d_56">
      <g>
       <use style="stroke:#000000;stroke-width:0.8;" x="115.2" xlink:href="#m114921d0dc" y="546.436643"/>
      </g>
     </g>
     <g id="text_28">
      <!-- 20 -->
      <g style="fill:#303030;" transform="translate(90.385 551.755549)scale(0.14 -0.14)">
       <use xlink:href="#DejaVuSans-50"/>
       <use x="63.623047" xlink:href="#DejaVuSans-48"/>
      </g>
     </g>
    </g>
    <g id="ytick_11">
     <g id="line2d_57">
      <path clip-path="url(#p165310aeff)" d="M 115.2 512.152523 
L 1382.4 512.152523 
" style="fill:none;stroke:#b0b0b0;stroke-linecap:square;stroke-width:0.8;"/>
     </g>
     <g id="line2d_58">
      <g>
       <use style="stroke:#000000;stroke-width:0.8;" x="115.2" xlink:href="#m114921d0dc" y="512.152523"/>
      </g>
     </g>
     <g id="text_29">
      <!-- 25 -->
      <g style="fill:#303030;" transform="translate(90.385 517.471429)scale(0.14 -0.14)">
       <use xlink:href="#DejaVuSans-50"/>
       <use x="63.623047" xlink:href="#DejaVuSans-53"/>
      </g>
     </g>
    </g>
    <g id="ytick_12">
     <g id="line2d_59">
      <path clip-path="url(#p165310aeff)" d="M 115.2 477.868403 
L 1382.4 477.868403 
" style="fill:none;stroke:#b0b0b0;stroke-linecap:square;stroke-width:0.8;"/>
     </g>
     <g id="line2d_60">
      <g>
       <use style="stroke:#000000;stroke-width:0.8;" x="115.2" xlink:href="#m114921d0dc" y="477.868403"/>
      </g>
     </g>
     <g id="text_30">
      <!-- 30 -->
      <defs>
       <path d="M 40.578125 39.3125 
Q 47.65625 37.796875 51.625 33 
Q 55.609375 28.21875 55.609375 21.1875 
Q 55.609375 10.40625 48.1875 4.484375 
Q 40.765625 -1.421875 27.09375 -1.421875 
Q 22.515625 -1.421875 17.65625 -0.515625 
Q 12.796875 0.390625 7.625 2.203125 
L 7.625 11.71875 
Q 11.71875 9.328125 16.59375 8.109375 
Q 21.484375 6.890625 26.8125 6.890625 
Q 36.078125 6.890625 40.9375 10.546875 
Q 45.796875 14.203125 45.796875 21.1875 
Q 45.796875 27.640625 41.28125 31.265625 
Q 36.765625 34.90625 28.71875 34.90625 
L 20.21875 34.90625 
L 20.21875 43.015625 
L 29.109375 43.015625 
Q 36.375 43.015625 40.234375 45.921875 
Q 44.09375 48.828125 44.09375 54.296875 
Q 44.09375 59.90625 40.109375 62.90625 
Q 36.140625 65.921875 28.71875 65.921875 
Q 24.65625 65.921875 20.015625 65.03125 
Q 15.375 64.15625 9.8125 62.3125 
L 9.8125 71.09375 
Q 15.4375 72.65625 20.34375 73.4375 
Q 25.25 74.21875 29.59375 74.21875 
Q 40.828125 74.21875 47.359375 69.109375 
Q 53.90625 64.015625 53.90625 55.328125 
Q 53.90625 49.265625 50.4375 45.09375 
Q 46.96875 40.921875 40.578125 39.3125 
z
" id="DejaVuSans-51"/>
      </defs>
      <g style="fill:#303030;" transform="translate(90.385 483.187309)scale(0.14 -0.14)">
       <use xlink:href="#DejaVuSans-51"/>
       <use x="63.623047" xlink:href="#DejaVuSans-48"/>
      </g>
     </g>
    </g>
    <g id="text_31">
     <!-- train_top1 -->
     <defs>
      <path d="M 42.09375 17.09375 
L 42.09375 33.09375 
Q 42.09375 37.703125 38.84375 40.796875 
Q 35.59375 43.90625 30.5 43.90625 
Q 25.40625 43.90625 22.046875 40.75 
Q 18.703125 37.59375 18.703125 33 
L 18.703125 17.09375 
Q 18.703125 12.5 22.046875 9.390625 
Q 25.40625 6.296875 30.5 6.296875 
Q 35.59375 6.296875 38.84375 9.390625 
Q 42.09375 12.5 42.09375 17.09375 
z
M 18.703125 3.703125 
L 18.796875 -16.203125 
Q 18.796875 -18 16.5 -18 
L 13 -18 
Q 10.703125 -18 10.703125 -16.203125 
L 10.703125 48.203125 
Q 10.703125 50 13 50 
L 15.90625 50 
Q 18.203125 50 18.203125 48.203125 
L 18.203125 45.90625 
Q 18.59375 46.5 19.5 47.34375 
Q 20.40625 48.203125 23.75 49.59375 
Q 27.09375 51 31.296875 51 
Q 39.296875 51 44.796875 45.640625 
Q 50.296875 40.296875 50.296875 32.59375 
L 50.296875 17.40625 
Q 50.296875 9.796875 44.75 4.390625 
Q 39.203125 -1 31.296875 -1 
Q 27.40625 -1 24.25 0.203125 
Q 21.09375 1.40625 19.90625 2.59375 
z
" id="DecimaMonoPro-112"/>
      <path d="M 13.90625 68.203125 
L 25.203125 70 
L 32.296875 70 
Q 33 70 33.546875 69.5 
Q 34.09375 69 34.09375 68.203125 
L 34.09375 7.703125 
L 47.296875 7.703125 
Q 48 7.703125 48.546875 7.140625 
Q 49.09375 6.59375 49.09375 5.90625 
L 49.09375 1.796875 
Q 49.09375 1 48.546875 0.5 
Q 48 0 47.296875 0 
L 12.59375 0 
Q 11.796875 0 11.296875 0.5 
Q 10.796875 1 10.796875 1.796875 
L 10.796875 5.90625 
Q 10.796875 6.59375 11.296875 7.140625 
Q 11.796875 7.703125 12.59375 7.703125 
L 25.703125 7.703125 
L 25.703125 62.09375 
L 14.703125 60.40625 
L 14.40625 60.40625 
Q 14 60.296875 13.5 60.296875 
Q 12.09375 60.296875 12.09375 62.09375 
L 12.09375 66.296875 
Q 12.09375 67.796875 13.90625 68.203125 
z
" id="DecimaMonoPro-49"/>
     </defs>
     <g style="opacity:0.75;" transform="translate(83.865 611.73913)rotate(-90)scale(0.14 -0.14)">
      <use xlink:href="#DecimaMonoPro-116"/>
      <use x="59.999985" xlink:href="#DecimaMonoPro-114"/>
      <use x="119.999969" xlink:href="#DecimaMonoPro-97"/>
      <use x="179.999954" xlink:href="#DecimaMonoPro-105"/>
      <use x="239.999939" xlink:href="#DecimaMonoPro-110"/>
      <use x="299.999924" xlink:href="#DecimaMonoPro-95"/>
      <use x="359.999908" xlink:href="#DecimaMonoPro-116"/>
      <use x="419.999893" xlink:href="#DecimaMonoPro-111"/>
      <use x="479.999878" xlink:href="#DecimaMonoPro-112"/>
      <use x="539.999863" xlink:href="#DecimaMonoPro-49"/>
     </g>
    </g>
   </g>
   <g id="line2d_61">
    <path clip-path="url(#p165310aeff)" d="M 115.2 605.898163 
L 181.894737 589.827482 
L 248.589474 603.219716 
L 315.284211 530.901651 
L 381.978947 485.368054 
L 448.673684 512.152523 
L 515.368421 536.258545 
L 582.063158 498.760288 
L 648.757895 509.474076 
L 715.452632 504.117182 
L 782.147368 498.760288 
L 848.842105 512.152523 
L 915.536842 504.117182 
L 982.231579 482.689607 
L 1048.926316 455.905138 
L 1115.621053 471.97582 
L 1182.315789 506.795629 
L 1249.010526 469.297373 
L 1315.705263 469.297373 
L 1382.4 485.368054 
" style="fill:none;stroke:#0057c4;stroke-width:3;"/>
   </g>
   <g id="line2d_62">
    <path clip-path="url(#p165310aeff)" d="M 115.2 683.573123 
L 1382.4 683.573123 
" style="fill:none;stroke:#000000;stroke-opacity:0.7;stroke-width:1.3;"/>
   </g>
   <g id="patch_9">
    <path d="M 115.2 694.956522 
L 115.2 444.521739 
" style="fill:none;stroke:#000000;stroke-linecap:square;stroke-linejoin:miter;stroke-width:0.8;"/>
   </g>
   <g id="patch_10">
    <path d="M 1382.4 694.956522 
L 1382.4 444.521739 
" style="fill:none;stroke:#000000;stroke-linecap:square;stroke-linejoin:miter;stroke-width:0.8;"/>
   </g>
   <g id="patch_11">
    <path d="M 115.2 694.956522 
L 1382.4 694.956522 
" style="fill:none;stroke:#000000;stroke-linecap:square;stroke-linejoin:miter;stroke-width:0.8;"/>
   </g>
   <g id="patch_12">
    <path d="M 115.2 444.521739 
L 1382.4 444.521739 
" style="fill:none;stroke:#000000;stroke-linecap:square;stroke-linejoin:miter;stroke-width:0.8;"/>
   </g>
   <g id="legend_2">
    <g id="patch_13">
     <path d="M 125 474.321739 
L 229.8 474.321739 
Q 232.6 474.321739 232.6 471.521739 
L 232.6 454.321739 
Q 232.6 451.521739 229.8 451.521739 
L 125 451.521739 
Q 122.2 451.521739 122.2 454.321739 
L 122.2 471.521739 
Q 122.2 474.321739 125 474.321739 
z
" style="fill:#f0f0f0;opacity:0.8;stroke:#cccccc;stroke-linejoin:miter;stroke-width:0.5;"/>
    </g>
    <g id="line2d_63">
     <path d="M 127.8 462.021739 
L 155.8 462.021739 
" style="fill:none;stroke:#0057c4;stroke-width:3;"/>
    </g>
    <g id="line2d_64"/>
    <g id="text_32">
     <!-- train_top1 -->
     <g style="opacity:0.75;" transform="translate(167 466.921739)scale(0.1 -0.1)">
      <use xlink:href="#DecimaMonoPro-116"/>
      <use x="59.999985" xlink:href="#DecimaMonoPro-114"/>
      <use x="119.999969" xlink:href="#DecimaMonoPro-97"/>
      <use x="179.999954" xlink:href="#DecimaMonoPro-105"/>
      <use x="239.999939" xlink:href="#DecimaMonoPro-110"/>
      <use x="299.999924" xlink:href="#DecimaMonoPro-95"/>
      <use x="359.999908" xlink:href="#DecimaMonoPro-116"/>
      <use x="419.999893" xlink:href="#DecimaMonoPro-111"/>
      <use x="479.999878" xlink:href="#DecimaMonoPro-112"/>
      <use x="539.999863" xlink:href="#DecimaMonoPro-49"/>
     </g>
    </g>
   </g>
  </g>
  <g id="axes_3">
   <g id="patch_14">
    <path d="M 115.2 995.478261 
L 1382.4 995.478261 
L 1382.4 745.043478 
L 115.2 745.043478 
z
" style="fill:#f0f0f0;"/>
   </g>
   <g id="matplotlib.axis_5">
    <g id="xtick_17">
     <g id="line2d_65">
      <path clip-path="url(#pb80b36193c)" d="M 115.2 995.478261 
L 115.2 745.043478 
" style="fill:none;stroke:#b0b0b0;stroke-linecap:square;stroke-width:0.8;"/>
     </g>
     <g id="line2d_66">
      <g>
       <use style="stroke:#000000;stroke-width:0.8;" x="115.2" xlink:href="#mc072e8b9f9" y="995.478261"/>
      </g>
     </g>
     <g id="text_33">
      <!-- 0 -->
      <g style="fill:#303030;" transform="translate(110.74625 1013.116073)scale(0.14 -0.14)">
       <use xlink:href="#DejaVuSans-48"/>
      </g>
     </g>
    </g>
    <g id="xtick_18">
     <g id="line2d_67">
      <path clip-path="url(#pb80b36193c)" d="M 326.4 995.478261 
L 326.4 745.043478 
" style="fill:none;stroke:#b0b0b0;stroke-linecap:square;stroke-width:0.8;"/>
     </g>
     <g id="line2d_68">
      <g>
       <use style="stroke:#000000;stroke-width:0.8;" x="326.4" xlink:href="#mc072e8b9f9" y="995.478261"/>
      </g>
     </g>
     <g id="text_34">
      <!-- 5 -->
      <g style="fill:#303030;" transform="translate(321.94625 1013.116073)scale(0.14 -0.14)">
       <use xlink:href="#DejaVuSans-53"/>
      </g>
     </g>
    </g>
    <g id="xtick_19">
     <g id="line2d_69">
      <path clip-path="url(#pb80b36193c)" d="M 537.6 995.478261 
L 537.6 745.043478 
" style="fill:none;stroke:#b0b0b0;stroke-linecap:square;stroke-width:0.8;"/>
     </g>
     <g id="line2d_70">
      <g>
       <use style="stroke:#000000;stroke-width:0.8;" x="537.6" xlink:href="#mc072e8b9f9" y="995.478261"/>
      </g>
     </g>
     <g id="text_35">
      <!-- 10 -->
      <g style="fill:#303030;" transform="translate(528.6925 1013.116073)scale(0.14 -0.14)">
       <use xlink:href="#DejaVuSans-49"/>
       <use x="63.623047" xlink:href="#DejaVuSans-48"/>
      </g>
     </g>
    </g>
    <g id="xtick_20">
     <g id="line2d_71">
      <path clip-path="url(#pb80b36193c)" d="M 748.8 995.478261 
L 748.8 745.043478 
" style="fill:none;stroke:#b0b0b0;stroke-linecap:square;stroke-width:0.8;"/>
     </g>
     <g id="line2d_72">
      <g>
       <use style="stroke:#000000;stroke-width:0.8;" x="748.8" xlink:href="#mc072e8b9f9" y="995.478261"/>
      </g>
     </g>
     <g id="text_36">
      <!-- 15 -->
      <g style="fill:#303030;" transform="translate(739.8925 1013.116073)scale(0.14 -0.14)">
       <use xlink:href="#DejaVuSans-49"/>
       <use x="63.623047" xlink:href="#DejaVuSans-53"/>
      </g>
     </g>
    </g>
    <g id="xtick_21">
     <g id="line2d_73">
      <path clip-path="url(#pb80b36193c)" d="M 960 995.478261 
L 960 745.043478 
" style="fill:none;stroke:#b0b0b0;stroke-linecap:square;stroke-width:0.8;"/>
     </g>
     <g id="line2d_74">
      <g>
       <use style="stroke:#000000;stroke-width:0.8;" x="960" xlink:href="#mc072e8b9f9" y="995.478261"/>
      </g>
     </g>
     <g id="text_37">
      <!-- 20 -->
      <g style="fill:#303030;" transform="translate(951.0925 1013.116073)scale(0.14 -0.14)">
       <use xlink:href="#DejaVuSans-50"/>
       <use x="63.623047" xlink:href="#DejaVuSans-48"/>
      </g>
     </g>
    </g>
    <g id="xtick_22">
     <g id="line2d_75">
      <path clip-path="url(#pb80b36193c)" d="M 1171.2 995.478261 
L 1171.2 745.043478 
" style="fill:none;stroke:#b0b0b0;stroke-linecap:square;stroke-width:0.8;"/>
     </g>
     <g id="line2d_76">
      <g>
       <use style="stroke:#000000;stroke-width:0.8;" x="1171.2" xlink:href="#mc072e8b9f9" y="995.478261"/>
      </g>
     </g>
     <g id="text_38">
      <!-- 25 -->
      <g style="fill:#303030;" transform="translate(1162.2925 1013.116073)scale(0.14 -0.14)">
       <use xlink:href="#DejaVuSans-50"/>
       <use x="63.623047" xlink:href="#DejaVuSans-53"/>
      </g>
     </g>
    </g>
    <g id="xtick_23">
     <g id="line2d_77">
      <path clip-path="url(#pb80b36193c)" d="M 1382.4 995.478261 
L 1382.4 745.043478 
" style="fill:none;stroke:#b0b0b0;stroke-linecap:square;stroke-width:0.8;"/>
     </g>
     <g id="line2d_78">
      <g>
       <use style="stroke:#000000;stroke-width:0.8;" x="1382.4" xlink:href="#mc072e8b9f9" y="995.478261"/>
      </g>
     </g>
     <g id="text_39">
      <!-- 30 -->
      <g style="fill:#303030;" transform="translate(1373.4925 1013.116073)scale(0.14 -0.14)">
       <use xlink:href="#DejaVuSans-51"/>
       <use x="63.623047" xlink:href="#DejaVuSans-48"/>
      </g>
     </g>
    </g>
   </g>
   <g id="matplotlib.axis_6">
    <g id="ytick_13">
     <g id="line2d_79">
      <path clip-path="url(#pb80b36193c)" d="M 115.2 984.094862 
L 1382.4 984.094862 
" style="fill:none;stroke:#b0b0b0;stroke-linecap:square;stroke-width:0.8;"/>
     </g>
     <g id="line2d_80">
      <g>
       <use style="stroke:#000000;stroke-width:0.8;" x="115.2" xlink:href="#m114921d0dc" y="984.094862"/>
      </g>
     </g>
     <g id="text_40">
      <!-- 0.00 -->
      <g style="fill:#303030;" transform="translate(77.028125 989.413768)scale(0.14 -0.14)">
       <use xlink:href="#DejaVuSans-48"/>
       <use x="63.623047" xlink:href="#DejaVuSans-46"/>
       <use x="95.410156" xlink:href="#DejaVuSans-48"/>
       <use x="159.033203" xlink:href="#DejaVuSans-48"/>
      </g>
     </g>
    </g>
    <g id="ytick_14">
     <g id="line2d_81">
      <path clip-path="url(#pb80b36193c)" d="M 115.2 952.122222 
L 1382.4 952.122222 
" style="fill:none;stroke:#b0b0b0;stroke-linecap:square;stroke-width:0.8;"/>
     </g>
     <g id="line2d_82">
      <g>
       <use style="stroke:#000000;stroke-width:0.8;" x="115.2" xlink:href="#m114921d0dc" y="952.122222"/>
      </g>
     </g>
     <g id="text_41">
      <!-- 0.25 -->
      <g style="fill:#303030;" transform="translate(77.028125 957.441128)scale(0.14 -0.14)">
       <use xlink:href="#DejaVuSans-48"/>
       <use x="63.623047" xlink:href="#DejaVuSans-46"/>
       <use x="95.410156" xlink:href="#DejaVuSans-50"/>
       <use x="159.033203" xlink:href="#DejaVuSans-53"/>
      </g>
     </g>
    </g>
    <g id="ytick_15">
     <g id="line2d_83">
      <path clip-path="url(#pb80b36193c)" d="M 115.2 920.149582 
L 1382.4 920.149582 
" style="fill:none;stroke:#b0b0b0;stroke-linecap:square;stroke-width:0.8;"/>
     </g>
     <g id="line2d_84">
      <g>
       <use style="stroke:#000000;stroke-width:0.8;" x="115.2" xlink:href="#m114921d0dc" y="920.149582"/>
      </g>
     </g>
     <g id="text_42">
      <!-- 0.50 -->
      <g style="fill:#303030;" transform="translate(77.028125 925.468488)scale(0.14 -0.14)">
       <use xlink:href="#DejaVuSans-48"/>
       <use x="63.623047" xlink:href="#DejaVuSans-46"/>
       <use x="95.410156" xlink:href="#DejaVuSans-53"/>
       <use x="159.033203" xlink:href="#DejaVuSans-48"/>
      </g>
     </g>
    </g>
    <g id="ytick_16">
     <g id="line2d_85">
      <path clip-path="url(#pb80b36193c)" d="M 115.2 888.176942 
L 1382.4 888.176942 
" style="fill:none;stroke:#b0b0b0;stroke-linecap:square;stroke-width:0.8;"/>
     </g>
     <g id="line2d_86">
      <g>
       <use style="stroke:#000000;stroke-width:0.8;" x="115.2" xlink:href="#m114921d0dc" y="888.176942"/>
      </g>
     </g>
     <g id="text_43">
      <!-- 0.75 -->
      <g style="fill:#303030;" transform="translate(77.028125 893.495848)scale(0.14 -0.14)">
       <use xlink:href="#DejaVuSans-48"/>
       <use x="63.623047" xlink:href="#DejaVuSans-46"/>
       <use x="95.410156" xlink:href="#DejaVuSans-55"/>
       <use x="159.033203" xlink:href="#DejaVuSans-53"/>
      </g>
     </g>
    </g>
    <g id="ytick_17">
     <g id="line2d_87">
      <path clip-path="url(#pb80b36193c)" d="M 115.2 856.204302 
L 1382.4 856.204302 
" style="fill:none;stroke:#b0b0b0;stroke-linecap:square;stroke-width:0.8;"/>
     </g>
     <g id="line2d_88">
      <g>
       <use style="stroke:#000000;stroke-width:0.8;" x="115.2" xlink:href="#m114921d0dc" y="856.204302"/>
      </g>
     </g>
     <g id="text_44">
      <!-- 1.00 -->
      <g style="fill:#303030;" transform="translate(77.028125 861.523209)scale(0.14 -0.14)">
       <use xlink:href="#DejaVuSans-49"/>
       <use x="63.623047" xlink:href="#DejaVuSans-46"/>
       <use x="95.410156" xlink:href="#DejaVuSans-48"/>
       <use x="159.033203" xlink:href="#DejaVuSans-48"/>
      </g>
     </g>
    </g>
    <g id="ytick_18">
     <g id="line2d_89">
      <path clip-path="url(#pb80b36193c)" d="M 115.2 824.231663 
L 1382.4 824.231663 
" style="fill:none;stroke:#b0b0b0;stroke-linecap:square;stroke-width:0.8;"/>
     </g>
     <g id="line2d_90">
      <g>
       <use style="stroke:#000000;stroke-width:0.8;" x="115.2" xlink:href="#m114921d0dc" y="824.231663"/>
      </g>
     </g>
     <g id="text_45">
      <!-- 1.25 -->
      <g style="fill:#303030;" transform="translate(77.028125 829.550569)scale(0.14 -0.14)">
       <use xlink:href="#DejaVuSans-49"/>
       <use x="63.623047" xlink:href="#DejaVuSans-46"/>
       <use x="95.410156" xlink:href="#DejaVuSans-50"/>
       <use x="159.033203" xlink:href="#DejaVuSans-53"/>
      </g>
     </g>
    </g>
    <g id="ytick_19">
     <g id="line2d_91">
      <path clip-path="url(#pb80b36193c)" d="M 115.2 792.259023 
L 1382.4 792.259023 
" style="fill:none;stroke:#b0b0b0;stroke-linecap:square;stroke-width:0.8;"/>
     </g>
     <g id="line2d_92">
      <g>
       <use style="stroke:#000000;stroke-width:0.8;" x="115.2" xlink:href="#m114921d0dc" y="792.259023"/>
      </g>
     </g>
     <g id="text_46">
      <!-- 1.50 -->
      <g style="fill:#303030;" transform="translate(77.028125 797.577929)scale(0.14 -0.14)">
       <use xlink:href="#DejaVuSans-49"/>
       <use x="63.623047" xlink:href="#DejaVuSans-46"/>
       <use x="95.410156" xlink:href="#DejaVuSans-53"/>
       <use x="159.033203" xlink:href="#DejaVuSans-48"/>
      </g>
     </g>
    </g>
    <g id="ytick_20">
     <g id="line2d_93">
      <path clip-path="url(#pb80b36193c)" d="M 115.2 760.286383 
L 1382.4 760.286383 
" style="fill:none;stroke:#b0b0b0;stroke-linecap:square;stroke-width:0.8;"/>
     </g>
     <g id="line2d_94">
      <g>
       <use style="stroke:#000000;stroke-width:0.8;" x="115.2" xlink:href="#m114921d0dc" y="760.286383"/>
      </g>
     </g>
     <g id="text_47">
      <!-- 1.75 -->
      <g style="fill:#303030;" transform="translate(77.028125 765.605289)scale(0.14 -0.14)">
       <use xlink:href="#DejaVuSans-49"/>
       <use x="63.623047" xlink:href="#DejaVuSans-46"/>
       <use x="95.410156" xlink:href="#DejaVuSans-55"/>
       <use x="159.033203" xlink:href="#DejaVuSans-53"/>
      </g>
     </g>
    </g>
    <g id="text_48">
     <!-- validate_loss -->
     <defs>
      <path d="M 47.59375 30.296875 
L 37.203125 1.703125 
Q 36.59375 0 34.796875 0 
L 25.09375 0 
Q 23.296875 0 22.703125 1.703125 
L 12.296875 30.296875 
Q 12 31 12 32 
L 12 48.203125 
Q 12 50 14.296875 50 
L 17.703125 50 
Q 20 50 20 48.203125 
L 20 31.796875 
Q 20 31 20.296875 30.296875 
L 28.90625 6.296875 
L 31 6.296875 
L 39.59375 30.296875 
Q 39.90625 31 39.90625 31.796875 
L 39.90625 48.203125 
Q 39.90625 50 42.203125 50 
L 45.59375 50 
Q 47.90625 50 47.90625 48.203125 
L 47.90625 32 
Q 47.90625 31 47.59375 30.296875 
z
" id="DecimaMonoPro-118"/>
      <path d="M 17.90625 32.90625 
L 17.90625 16.90625 
Q 17.90625 12.296875 21.15625 9.1875 
Q 24.40625 6.09375 29.5 6.09375 
Q 34.59375 6.09375 37.9375 9.25 
Q 41.296875 12.40625 41.296875 17 
L 41.296875 32.90625 
Q 41.296875 37.5 37.9375 40.59375 
Q 34.59375 43.703125 29.5 43.703125 
Q 24.40625 43.703125 21.15625 40.59375 
Q 17.90625 37.5 17.90625 32.90625 
z
M 41.296875 46.296875 
L 41.203125 68.203125 
Q 41.203125 70 43.5 70 
L 47 70 
Q 49.296875 70 49.296875 68.203125 
L 49.296875 1.796875 
Q 49.296875 0 47 0 
L 44.09375 0 
Q 41.796875 0 41.796875 1.796875 
L 41.796875 4.09375 
Q 41.40625 3.5 40.5 2.640625 
Q 39.59375 1.796875 36.25 0.390625 
Q 32.90625 -1 28.703125 -1 
Q 20.703125 -1 15.203125 4.34375 
Q 9.703125 9.703125 9.703125 17.40625 
L 9.703125 32.59375 
Q 9.703125 40.203125 15.25 45.59375 
Q 20.796875 51 28.703125 51 
Q 32.59375 51 35.75 49.796875 
Q 38.90625 48.59375 40.09375 47.40625 
z
" id="DecimaMonoPro-100"/>
      <path d="M 48.796875 13.5 
Q 48.796875 9.09375 43.75 4.046875 
Q 38.703125 -1 30.203125 -1 
Q 21.203125 -1 15.75 4.453125 
Q 10.296875 9.90625 10.296875 17.5 
L 10.296875 32.703125 
Q 10.296875 40.203125 15.75 45.59375 
Q 21.203125 51 30.203125 51 
Q 39.203125 51 44.453125 45.59375 
Q 49.703125 40.203125 49.703125 32.703125 
L 49.703125 24.796875 
Q 49.703125 23.796875 49.046875 23.140625 
Q 48.40625 22.5 47.40625 22.5 
L 18.40625 22.5 
L 18.40625 17 
Q 18.40625 12.5 21.65625 9.296875 
Q 24.90625 6.09375 30.203125 6.09375 
Q 38.5 6.09375 40.59375 13.59375 
Q 41.09375 15.296875 42.40625 15.296875 
L 47 15.296875 
Q 47.796875 15.296875 48.296875 14.75 
Q 48.796875 14.203125 48.796875 13.5 
z
M 18.40625 33 
L 18.40625 29.703125 
L 41.796875 29.703125 
L 41.796875 33 
Q 41.796875 37.5 38.640625 40.640625 
Q 35.5 43.796875 30.203125 43.796875 
Q 24.90625 43.796875 21.65625 40.640625 
Q 18.40625 37.5 18.40625 33 
z
" id="DecimaMonoPro-101"/>
     </defs>
     <g style="opacity:0.75;" transform="translate(70.508125 924.86087)rotate(-90)scale(0.14 -0.14)">
      <use xlink:href="#DecimaMonoPro-118"/>
      <use x="59.999985" xlink:href="#DecimaMonoPro-97"/>
      <use x="119.999969" xlink:href="#DecimaMonoPro-108"/>
      <use x="179.999954" xlink:href="#DecimaMonoPro-105"/>
      <use x="239.999939" xlink:href="#DecimaMonoPro-100"/>
      <use x="299.999924" xlink:href="#DecimaMonoPro-97"/>
      <use x="359.999908" xlink:href="#DecimaMonoPro-116"/>
      <use x="419.999893" xlink:href="#DecimaMonoPro-101"/>
      <use x="479.999878" xlink:href="#DecimaMonoPro-95"/>
      <use x="539.999863" xlink:href="#DecimaMonoPro-108"/>
      <use x="599.999847" xlink:href="#DecimaMonoPro-111"/>
      <use x="659.999832" xlink:href="#DecimaMonoPro-115"/>
      <use x="719.999817" xlink:href="#DecimaMonoPro-115"/>
     </g>
    </g>
   </g>
   <g id="line2d_95">
    <path clip-path="url(#pb80b36193c)" d="M 115.2 760.542664 
L 537.6 756.426877 
L 960 757.343375 
L 1382.4 762.773116 
" style="fill:none;stroke:#ffd700;stroke-width:3;"/>
   </g>
   <g id="line2d_96">
    <path clip-path="url(#pb80b36193c)" d="M 115.2 984.094862 
L 1382.4 984.094862 
" style="fill:none;stroke:#000000;stroke-opacity:0.7;stroke-width:1.3;"/>
   </g>
   <g id="patch_15">
    <path d="M 115.2 995.478261 
L 115.2 745.043478 
" style="fill:none;stroke:#000000;stroke-linecap:square;stroke-linejoin:miter;stroke-width:0.8;"/>
   </g>
   <g id="patch_16">
    <path d="M 1382.4 995.478261 
L 1382.4 745.043478 
" style="fill:none;stroke:#000000;stroke-linecap:square;stroke-linejoin:miter;stroke-width:0.8;"/>
   </g>
   <g id="patch_17">
    <path d="M 115.2 995.478261 
L 1382.4 995.478261 
" style="fill:none;stroke:#000000;stroke-linecap:square;stroke-linejoin:miter;stroke-width:0.8;"/>
   </g>
   <g id="patch_18">
    <path d="M 115.2 745.043478 
L 1382.4 745.043478 
" style="fill:none;stroke:#000000;stroke-linecap:square;stroke-linejoin:miter;stroke-width:0.8;"/>
   </g>
   <g id="legend_3">
    <g id="patch_19">
     <path d="M 1249.8 881.66087 
L 1372.6 881.66087 
Q 1375.4 881.66087 1375.4 878.86087 
L 1375.4 861.66087 
Q 1375.4 858.86087 1372.6 858.86087 
L 1249.8 858.86087 
Q 1247 858.86087 1247 861.66087 
L 1247 878.86087 
Q 1247 881.66087 1249.8 881.66087 
z
" style="fill:#f0f0f0;opacity:0.8;stroke:#cccccc;stroke-linejoin:miter;stroke-width:0.5;"/>
    </g>
    <g id="line2d_97">
     <path d="M 1252.6 869.36087 
L 1280.6 869.36087 
" style="fill:none;stroke:#ffd700;stroke-width:3;"/>
    </g>
    <g id="line2d_98"/>
    <g id="text_49">
     <!-- validate_loss -->
     <g style="opacity:0.75;" transform="translate(1291.8 874.26087)scale(0.1 -0.1)">
      <use xlink:href="#DecimaMonoPro-118"/>
      <use x="59.999985" xlink:href="#DecimaMonoPro-97"/>
      <use x="119.999969" xlink:href="#DecimaMonoPro-108"/>
      <use x="179.999954" xlink:href="#DecimaMonoPro-105"/>
      <use x="239.999939" xlink:href="#DecimaMonoPro-100"/>
      <use x="299.999924" xlink:href="#DecimaMonoPro-97"/>
      <use x="359.999908" xlink:href="#DecimaMonoPro-116"/>
      <use x="419.999893" xlink:href="#DecimaMonoPro-101"/>
      <use x="479.999878" xlink:href="#DecimaMonoPro-95"/>
      <use x="539.999863" xlink:href="#DecimaMonoPro-108"/>
      <use x="599.999847" xlink:href="#DecimaMonoPro-111"/>
      <use x="659.999832" xlink:href="#DecimaMonoPro-115"/>
      <use x="719.999817" xlink:href="#DecimaMonoPro-115"/>
     </g>
    </g>
   </g>
  </g>
  <g id="axes_4">
   <g id="patch_20">
    <path d="M 115.2 1296 
L 1382.4 1296 
L 1382.4 1045.565217 
L 115.2 1045.565217 
z
" style="fill:#f0f0f0;"/>
   </g>
   <g id="matplotlib.axis_7">
    <g id="xtick_24">
     <g id="line2d_99">
      <path clip-path="url(#p06cf64fd54)" d="M 115.2 1296 
L 115.2 1045.565217 
" style="fill:none;stroke:#b0b0b0;stroke-linecap:square;stroke-width:0.8;"/>
     </g>
     <g id="line2d_100">
      <g>
       <use style="stroke:#000000;stroke-width:0.8;" x="115.2" xlink:href="#mc072e8b9f9" y="1296"/>
      </g>
     </g>
     <g id="text_50">
      <!-- 0 -->
      <g style="fill:#303030;" transform="translate(110.74625 1313.637813)scale(0.14 -0.14)">
       <use xlink:href="#DejaVuSans-48"/>
      </g>
     </g>
    </g>
    <g id="xtick_25">
     <g id="line2d_101">
      <path clip-path="url(#p06cf64fd54)" d="M 326.4 1296 
L 326.4 1045.565217 
" style="fill:none;stroke:#b0b0b0;stroke-linecap:square;stroke-width:0.8;"/>
     </g>
     <g id="line2d_102">
      <g>
       <use style="stroke:#000000;stroke-width:0.8;" x="326.4" xlink:href="#mc072e8b9f9" y="1296"/>
      </g>
     </g>
     <g id="text_51">
      <!-- 5 -->
      <g style="fill:#303030;" transform="translate(321.94625 1313.637813)scale(0.14 -0.14)">
       <use xlink:href="#DejaVuSans-53"/>
      </g>
     </g>
    </g>
    <g id="xtick_26">
     <g id="line2d_103">
      <path clip-path="url(#p06cf64fd54)" d="M 537.6 1296 
L 537.6 1045.565217 
" style="fill:none;stroke:#b0b0b0;stroke-linecap:square;stroke-width:0.8;"/>
     </g>
     <g id="line2d_104">
      <g>
       <use style="stroke:#000000;stroke-width:0.8;" x="537.6" xlink:href="#mc072e8b9f9" y="1296"/>
      </g>
     </g>
     <g id="text_52">
      <!-- 10 -->
      <g style="fill:#303030;" transform="translate(528.6925 1313.637813)scale(0.14 -0.14)">
       <use xlink:href="#DejaVuSans-49"/>
       <use x="63.623047" xlink:href="#DejaVuSans-48"/>
      </g>
     </g>
    </g>
    <g id="xtick_27">
     <g id="line2d_105">
      <path clip-path="url(#p06cf64fd54)" d="M 748.8 1296 
L 748.8 1045.565217 
" style="fill:none;stroke:#b0b0b0;stroke-linecap:square;stroke-width:0.8;"/>
     </g>
     <g id="line2d_106">
      <g>
       <use style="stroke:#000000;stroke-width:0.8;" x="748.8" xlink:href="#mc072e8b9f9" y="1296"/>
      </g>
     </g>
     <g id="text_53">
      <!-- 15 -->
      <g style="fill:#303030;" transform="translate(739.8925 1313.637813)scale(0.14 -0.14)">
       <use xlink:href="#DejaVuSans-49"/>
       <use x="63.623047" xlink:href="#DejaVuSans-53"/>
      </g>
     </g>
    </g>
    <g id="xtick_28">
     <g id="line2d_107">
      <path clip-path="url(#p06cf64fd54)" d="M 960 1296 
L 960 1045.565217 
" style="fill:none;stroke:#b0b0b0;stroke-linecap:square;stroke-width:0.8;"/>
     </g>
     <g id="line2d_108">
      <g>
       <use style="stroke:#000000;stroke-width:0.8;" x="960" xlink:href="#mc072e8b9f9" y="1296"/>
      </g>
     </g>
     <g id="text_54">
      <!-- 20 -->
      <g style="fill:#303030;" transform="translate(951.0925 1313.637813)scale(0.14 -0.14)">
       <use xlink:href="#DejaVuSans-50"/>
       <use x="63.623047" xlink:href="#DejaVuSans-48"/>
      </g>
     </g>
    </g>
    <g id="xtick_29">
     <g id="line2d_109">
      <path clip-path="url(#p06cf64fd54)" d="M 1171.2 1296 
L 1171.2 1045.565217 
" style="fill:none;stroke:#b0b0b0;stroke-linecap:square;stroke-width:0.8;"/>
     </g>
     <g id="line2d_110">
      <g>
       <use style="stroke:#000000;stroke-width:0.8;" x="1171.2" xlink:href="#mc072e8b9f9" y="1296"/>
      </g>
     </g>
     <g id="text_55">
      <!-- 25 -->
      <g style="fill:#303030;" transform="translate(1162.2925 1313.637813)scale(0.14 -0.14)">
       <use xlink:href="#DejaVuSans-50"/>
       <use x="63.623047" xlink:href="#DejaVuSans-53"/>
      </g>
     </g>
    </g>
    <g id="xtick_30">
     <g id="line2d_111">
      <path clip-path="url(#p06cf64fd54)" d="M 1382.4 1296 
L 1382.4 1045.565217 
" style="fill:none;stroke:#b0b0b0;stroke-linecap:square;stroke-width:0.8;"/>
     </g>
     <g id="line2d_112">
      <g>
       <use style="stroke:#000000;stroke-width:0.8;" x="1382.4" xlink:href="#mc072e8b9f9" y="1296"/>
      </g>
     </g>
     <g id="text_56">
      <!-- 30 -->
      <g style="fill:#303030;" transform="translate(1373.4925 1313.637813)scale(0.14 -0.14)">
       <use xlink:href="#DejaVuSans-51"/>
       <use x="63.623047" xlink:href="#DejaVuSans-48"/>
      </g>
     </g>
    </g>
    <g id="text_57">
     <!-- Iterations -->
     <defs>
      <path d="M 47.296875 0 
L 12.703125 0 
Q 11.90625 0 11.296875 0.59375 
Q 10.703125 1.203125 10.703125 2.296875 
L 10.703125 5.59375 
Q 10.703125 6.703125 11.296875 7.296875 
Q 11.90625 7.90625 12.703125 7.90625 
L 25.796875 7.90625 
L 25.796875 62.09375 
L 12.703125 62.09375 
Q 11.90625 62.09375 11.296875 62.6875 
Q 10.703125 63.296875 10.703125 64.40625 
L 10.703125 67.703125 
Q 10.703125 68.796875 11.296875 69.390625 
Q 11.90625 70 12.703125 70 
L 47.296875 70 
Q 48.09375 70 48.6875 69.390625 
Q 49.296875 68.796875 49.296875 67.703125 
L 49.296875 64.40625 
Q 49.296875 63.296875 48.6875 62.6875 
Q 48.09375 62.09375 47.296875 62.09375 
L 34.203125 62.09375 
L 34.203125 7.90625 
L 47.296875 7.90625 
Q 48.09375 7.90625 48.6875 7.296875 
Q 49.296875 6.703125 49.296875 5.59375 
L 49.296875 2.296875 
Q 49.296875 1.203125 48.6875 0.59375 
Q 48.09375 0 47.296875 0 
z
" id="DecimaMonoPro-73"/>
     </defs>
     <g style="opacity:0.75;" transform="translate(676.8 1337.371875)scale(0.24 -0.24)">
      <use xlink:href="#DecimaMonoPro-73"/>
      <use x="59.999985" xlink:href="#DecimaMonoPro-116"/>
      <use x="119.999969" xlink:href="#DecimaMonoPro-101"/>
      <use x="179.999954" xlink:href="#DecimaMonoPro-114"/>
      <use x="239.999939" xlink:href="#DecimaMonoPro-97"/>
      <use x="299.999924" xlink:href="#DecimaMonoPro-116"/>
      <use x="359.999908" xlink:href="#DecimaMonoPro-105"/>
      <use x="419.999893" xlink:href="#DecimaMonoPro-111"/>
      <use x="479.999878" xlink:href="#DecimaMonoPro-110"/>
      <use x="539.999863" xlink:href="#DecimaMonoPro-115"/>
     </g>
    </g>
   </g>
   <g id="matplotlib.axis_8">
    <g id="ytick_21">
     <g id="line2d_113">
      <path clip-path="url(#p06cf64fd54)" d="M 115.2 1284.616601 
L 1382.4 1284.616601 
" style="fill:none;stroke:#b0b0b0;stroke-linecap:square;stroke-width:0.8;"/>
     </g>
     <g id="line2d_114">
      <g>
       <use style="stroke:#000000;stroke-width:0.8;" x="115.2" xlink:href="#m114921d0dc" y="1284.616601"/>
      </g>
     </g>
     <g id="text_58">
      <!-- 0 -->
      <g style="fill:#303030;" transform="translate(99.2925 1289.935507)scale(0.14 -0.14)">
       <use xlink:href="#DejaVuSans-48"/>
      </g>
     </g>
    </g>
    <g id="ytick_22">
     <g id="line2d_115">
      <path clip-path="url(#p06cf64fd54)" d="M 115.2 1252.941055 
L 1382.4 1252.941055 
" style="fill:none;stroke:#b0b0b0;stroke-linecap:square;stroke-width:0.8;"/>
     </g>
     <g id="line2d_116">
      <g>
       <use style="stroke:#000000;stroke-width:0.8;" x="115.2" xlink:href="#m114921d0dc" y="1252.941055"/>
      </g>
     </g>
     <g id="text_59">
      <!-- 5 -->
      <g style="fill:#303030;" transform="translate(99.2925 1258.259961)scale(0.14 -0.14)">
       <use xlink:href="#DejaVuSans-53"/>
      </g>
     </g>
    </g>
    <g id="ytick_23">
     <g id="line2d_117">
      <path clip-path="url(#p06cf64fd54)" d="M 115.2 1221.26551 
L 1382.4 1221.26551 
" style="fill:none;stroke:#b0b0b0;stroke-linecap:square;stroke-width:0.8;"/>
     </g>
     <g id="line2d_118">
      <g>
       <use style="stroke:#000000;stroke-width:0.8;" x="115.2" xlink:href="#m114921d0dc" y="1221.26551"/>
      </g>
     </g>
     <g id="text_60">
      <!-- 10 -->
      <g style="fill:#303030;" transform="translate(90.385 1226.584416)scale(0.14 -0.14)">
       <use xlink:href="#DejaVuSans-49"/>
       <use x="63.623047" xlink:href="#DejaVuSans-48"/>
      </g>
     </g>
    </g>
    <g id="ytick_24">
     <g id="line2d_119">
      <path clip-path="url(#p06cf64fd54)" d="M 115.2 1189.589964 
L 1382.4 1189.589964 
" style="fill:none;stroke:#b0b0b0;stroke-linecap:square;stroke-width:0.8;"/>
     </g>
     <g id="line2d_120">
      <g>
       <use style="stroke:#000000;stroke-width:0.8;" x="115.2" xlink:href="#m114921d0dc" y="1189.589964"/>
      </g>
     </g>
     <g id="text_61">
      <!-- 15 -->
      <g style="fill:#303030;" transform="translate(90.385 1194.90887)scale(0.14 -0.14)">
       <use xlink:href="#DejaVuSans-49"/>
       <use x="63.623047" xlink:href="#DejaVuSans-53"/>
      </g>
     </g>
    </g>
    <g id="ytick_25">
     <g id="line2d_121">
      <path clip-path="url(#p06cf64fd54)" d="M 115.2 1157.914418 
L 1382.4 1157.914418 
" style="fill:none;stroke:#b0b0b0;stroke-linecap:square;stroke-width:0.8;"/>
     </g>
     <g id="line2d_122">
      <g>
       <use style="stroke:#000000;stroke-width:0.8;" x="115.2" xlink:href="#m114921d0dc" y="1157.914418"/>
      </g>
     </g>
     <g id="text_62">
      <!-- 20 -->
      <g style="fill:#303030;" transform="translate(90.385 1163.233325)scale(0.14 -0.14)">
       <use xlink:href="#DejaVuSans-50"/>
       <use x="63.623047" xlink:href="#DejaVuSans-48"/>
      </g>
     </g>
    </g>
    <g id="ytick_26">
     <g id="line2d_123">
      <path clip-path="url(#p06cf64fd54)" d="M 115.2 1126.238873 
L 1382.4 1126.238873 
" style="fill:none;stroke:#b0b0b0;stroke-linecap:square;stroke-width:0.8;"/>
     </g>
     <g id="line2d_124">
      <g>
       <use style="stroke:#000000;stroke-width:0.8;" x="115.2" xlink:href="#m114921d0dc" y="1126.238873"/>
      </g>
     </g>
     <g id="text_63">
      <!-- 25 -->
      <g style="fill:#303030;" transform="translate(90.385 1131.557779)scale(0.14 -0.14)">
       <use xlink:href="#DejaVuSans-50"/>
       <use x="63.623047" xlink:href="#DejaVuSans-53"/>
      </g>
     </g>
    </g>
    <g id="ytick_27">
     <g id="line2d_125">
      <path clip-path="url(#p06cf64fd54)" d="M 115.2 1094.563327 
L 1382.4 1094.563327 
" style="fill:none;stroke:#b0b0b0;stroke-linecap:square;stroke-width:0.8;"/>
     </g>
     <g id="line2d_126">
      <g>
       <use style="stroke:#000000;stroke-width:0.8;" x="115.2" xlink:href="#m114921d0dc" y="1094.563327"/>
      </g>
     </g>
     <g id="text_64">
      <!-- 30 -->
      <g style="fill:#303030;" transform="translate(90.385 1099.882233)scale(0.14 -0.14)">
       <use xlink:href="#DejaVuSans-51"/>
       <use x="63.623047" xlink:href="#DejaVuSans-48"/>
      </g>
     </g>
    </g>
    <g id="ytick_28">
     <g id="line2d_127">
      <path clip-path="url(#p06cf64fd54)" d="M 115.2 1062.887781 
L 1382.4 1062.887781 
" style="fill:none;stroke:#b0b0b0;stroke-linecap:square;stroke-width:0.8;"/>
     </g>
     <g id="line2d_128">
      <g>
       <use style="stroke:#000000;stroke-width:0.8;" x="115.2" xlink:href="#m114921d0dc" y="1062.887781"/>
      </g>
     </g>
     <g id="text_65">
      <!-- 35 -->
      <g style="fill:#303030;" transform="translate(90.385 1068.206688)scale(0.14 -0.14)">
       <use xlink:href="#DejaVuSans-51"/>
       <use x="63.623047" xlink:href="#DejaVuSans-53"/>
      </g>
     </g>
    </g>
    <g id="text_66">
     <!-- validate_top1 -->
     <g style="opacity:0.75;" transform="translate(83.865 1225.382609)rotate(-90)scale(0.14 -0.14)">
      <use xlink:href="#DecimaMonoPro-118"/>
      <use x="59.999985" xlink:href="#DecimaMonoPro-97"/>
      <use x="119.999969" xlink:href="#DecimaMonoPro-108"/>
      <use x="179.999954" xlink:href="#DecimaMonoPro-105"/>
      <use x="239.999939" xlink:href="#DecimaMonoPro-100"/>
      <use x="299.999924" xlink:href="#DecimaMonoPro-97"/>
      <use x="359.999908" xlink:href="#DecimaMonoPro-116"/>
      <use x="419.999893" xlink:href="#DecimaMonoPro-101"/>
      <use x="479.999878" xlink:href="#DecimaMonoPro-95"/>
      <use x="539.999863" xlink:href="#DecimaMonoPro-116"/>
      <use x="599.999847" xlink:href="#DecimaMonoPro-111"/>
      <use x="659.999832" xlink:href="#DecimaMonoPro-112"/>
      <use x="719.999817" xlink:href="#DecimaMonoPro-49"/>
     </g>
    </g>
   </g>
   <g id="line2d_129">
    <path clip-path="url(#p06cf64fd54)" d="M 115.2 1079.220485 
L 537.6 1056.948617 
L 960 1064.372573 
L 1382.4 1059.423269 
" style="fill:none;stroke:#a300cf;stroke-width:3;"/>
   </g>
   <g id="line2d_130">
    <path clip-path="url(#p06cf64fd54)" d="M 115.2 1284.616601 
L 1382.4 1284.616601 
" style="fill:none;stroke:#000000;stroke-opacity:0.7;stroke-width:1.3;"/>
   </g>
   <g id="patch_21">
    <path d="M 115.2 1296 
L 115.2 1045.565217 
" style="fill:none;stroke:#000000;stroke-linecap:square;stroke-linejoin:miter;stroke-width:0.8;"/>
   </g>
   <g id="patch_22">
    <path d="M 1382.4 1296 
L 1382.4 1045.565217 
" style="fill:none;stroke:#000000;stroke-linecap:square;stroke-linejoin:miter;stroke-width:0.8;"/>
   </g>
   <g id="patch_23">
    <path d="M 115.2 1296 
L 1382.4 1296 
" style="fill:none;stroke:#000000;stroke-linecap:square;stroke-linejoin:miter;stroke-width:0.8;"/>
   </g>
   <g id="patch_24">
    <path d="M 115.2 1045.565217 
L 1382.4 1045.565217 
" style="fill:none;stroke:#000000;stroke-linecap:square;stroke-linejoin:miter;stroke-width:0.8;"/>
   </g>
   <g id="patch_25">
    <path d="M 0 1440 
L 1440 1440 
L 1440 1413.116883 
L 0 1413.116883 
z
" style="fill:#808080;"/>
   </g>
   <g id="text_67">
    <!-- craw -->
    <defs>
     <path d="M 50 72.515625 
Q 57.421875 72.515625 63.84375 69.828125 
Q 70.265625 67.140625 75.59375 61.8125 
Q 80.90625 56.5 83.546875 50.09375 
Q 86.1875 43.703125 86.1875 36.1875 
Q 86.1875 28.765625 83.546875 22.390625 
Q 80.90625 16.015625 75.59375 10.6875 
Q 70.265625 5.375 63.84375 2.6875 
Q 57.421875 0 50 0 
Q 42.578125 0 36.15625 2.6875 
Q 29.734375 5.375 24.421875 10.6875 
Q 19.09375 16.015625 16.453125 22.390625 
Q 13.8125 28.765625 13.8125 36.1875 
Q 13.8125 43.703125 16.453125 50.09375 
Q 19.09375 56.5 24.421875 61.8125 
Q 29.734375 67.140625 36.15625 69.828125 
Q 42.578125 72.515625 50 72.515625 
z
M 50 67.484375 
Q 43.609375 67.484375 38.078125 65.1875 
Q 32.5625 62.890625 27.984375 58.296875 
Q 23.390625 53.71875 21.046875 48.125 
Q 18.703125 42.53125 18.703125 36.1875 
Q 18.703125 29.890625 21.046875 24.34375 
Q 23.390625 18.796875 27.984375 14.203125 
Q 32.5625 9.625 38.078125 7.296875 
Q 43.609375 4.984375 50 4.984375 
Q 56.453125 4.984375 61.984375 7.296875 
Q 67.53125 9.625 72.125 14.203125 
Q 76.65625 18.75 78.921875 24.265625 
Q 81.203125 29.78125 81.203125 36.1875 
Q 81.203125 42.671875 78.90625 48.21875 
Q 76.609375 53.765625 72.125 58.296875 
Q 67.53125 62.890625 61.984375 65.1875 
Q 56.453125 67.484375 50 67.484375 
z
M 64.59375 55.515625 
L 64.59375 49.21875 
Q 61.375 50.828125 58.203125 51.609375 
Q 55.03125 52.390625 51.8125 52.390625 
Q 44.53125 52.390625 40.453125 48.109375 
Q 36.375 43.84375 36.375 36.1875 
Q 36.375 28.421875 40.546875 24.171875 
Q 44.734375 19.921875 52.296875 19.921875 
Q 55.421875 19.921875 58.390625 20.671875 
Q 61.375 21.4375 64.59375 23.09375 
L 64.59375 16.890625 
Q 61.328125 15.484375 57.984375 14.796875 
Q 54.640625 14.109375 51.21875 14.109375 
Q 40.671875 14.109375 34.546875 20.0625 
Q 28.421875 26.03125 28.421875 36.1875 
Q 28.421875 46.390625 34.546875 52.296875 
Q 40.671875 58.203125 51.21875 58.203125 
Q 54.78125 58.203125 58.09375 57.515625 
Q 61.421875 56.84375 64.59375 55.515625 
z
" id="DejaVuSans-169"/>
     <path d="M 48.78125 52.59375 
L 48.78125 44.1875 
Q 44.96875 46.296875 41.140625 47.34375 
Q 37.3125 48.390625 33.40625 48.390625 
Q 24.65625 48.390625 19.8125 42.84375 
Q 14.984375 37.3125 14.984375 27.296875 
Q 14.984375 17.28125 19.8125 11.734375 
Q 24.65625 6.203125 33.40625 6.203125 
Q 37.3125 6.203125 41.140625 7.25 
Q 44.96875 8.296875 48.78125 10.40625 
L 48.78125 2.09375 
Q 45.015625 0.34375 40.984375 -0.53125 
Q 36.96875 -1.421875 32.421875 -1.421875 
Q 20.0625 -1.421875 12.78125 6.34375 
Q 5.515625 14.109375 5.515625 27.296875 
Q 5.515625 40.671875 12.859375 48.328125 
Q 20.21875 56 33.015625 56 
Q 37.15625 56 41.109375 55.140625 
Q 45.0625 54.296875 48.78125 52.59375 
z
" id="DejaVuSans-99"/>
     <path d="M 41.109375 46.296875 
Q 39.59375 47.171875 37.8125 47.578125 
Q 36.03125 48 33.890625 48 
Q 26.265625 48 22.1875 43.046875 
Q 18.109375 38.09375 18.109375 28.8125 
L 18.109375 0 
L 9.078125 0 
L 9.078125 54.6875 
L 18.109375 54.6875 
L 18.109375 46.1875 
Q 20.953125 51.171875 25.484375 53.578125 
Q 30.03125 56 36.53125 56 
Q 37.453125 56 38.578125 55.875 
Q 39.703125 55.765625 41.0625 55.515625 
z
" id="DejaVuSans-114"/>
     <path d="M 34.28125 27.484375 
Q 23.390625 27.484375 19.1875 25 
Q 14.984375 22.515625 14.984375 16.5 
Q 14.984375 11.71875 18.140625 8.90625 
Q 21.296875 6.109375 26.703125 6.109375 
Q 34.1875 6.109375 38.703125 11.40625 
Q 43.21875 16.703125 43.21875 25.484375 
L 43.21875 27.484375 
z
M 52.203125 31.203125 
L 52.203125 0 
L 43.21875 0 
L 43.21875 8.296875 
Q 40.140625 3.328125 35.546875 0.953125 
Q 30.953125 -1.421875 24.3125 -1.421875 
Q 15.921875 -1.421875 10.953125 3.296875 
Q 6 8.015625 6 15.921875 
Q 6 25.140625 12.171875 29.828125 
Q 18.359375 34.515625 30.609375 34.515625 
L 43.21875 34.515625 
L 43.21875 35.40625 
Q 43.21875 41.609375 39.140625 45 
Q 35.0625 48.390625 27.6875 48.390625 
Q 23 48.390625 18.546875 47.265625 
Q 14.109375 46.140625 10.015625 43.890625 
L 10.015625 52.203125 
Q 14.9375 54.109375 19.578125 55.046875 
Q 24.21875 56 28.609375 56 
Q 40.484375 56 46.34375 49.84375 
Q 52.203125 43.703125 52.203125 31.203125 
z
" id="DejaVuSans-97"/>
     <path d="M 4.203125 54.6875 
L 13.1875 54.6875 
L 24.421875 12.015625 
L 35.59375 54.6875 
L 46.1875 54.6875 
L 57.421875 12.015625 
L 68.609375 54.6875 
L 77.59375 54.6875 
L 63.28125 0 
L 52.6875 0 
L 40.921875 44.828125 
L 29.109375 0 
L 18.5 0 
z
" id="DejaVuSans-119"/>
    </defs>
    <g style="fill:#ffffff;" transform="translate(28.8 1432.8)scale(0.14 -0.14)">
     <use xlink:href="#DejaVuSans-169"/>
     <use x="100" xlink:href="#DejaVuSans-99"/>
     <use x="154.980469" xlink:href="#DejaVuSans-114"/>
     <use x="196.09375" xlink:href="#DejaVuSans-97"/>
     <use x="257.373047" xlink:href="#DejaVuSans-119"/>
    </g>
   </g>
   <g id="text_68">
    <!-- example -->
    <defs>
     <path d="M 34.703125 25.59375 
L 48.5 3.296875 
Q 49.5 1.5 49.5 1.09375 
Q 49.5 0 47.5 0 
L 43.203125 0 
Q 41.40625 0 40.296875 1.796875 
L 30 18.5 
L 19.703125 1.796875 
Q 18.59375 0 16.90625 0 
L 12.59375 0 
Q 10.59375 0 10.59375 1.09375 
Q 10.59375 1.703125 11.5 3.296875 
L 25.203125 25.59375 
L 12 46.703125 
Q 11.09375 48.296875 11.09375 48.90625 
Q 11.09375 50 13.09375 50 
L 17.40625 50 
Q 19.203125 50 20.296875 48.203125 
L 30 32.59375 
L 39.59375 48.203125 
Q 40.703125 50 42.5 50 
L 46.796875 50 
Q 48.796875 50 48.796875 48.90625 
Q 48.796875 48.296875 47.90625 46.703125 
z
" id="DecimaMonoPro-120"/>
     <path d="M 45.40625 1.796875 
L 45.40625 38.40625 
Q 45.40625 40.5 43.84375 42.140625 
Q 42.296875 43.796875 40.5 43.796875 
Q 37.40625 43.796875 35.75 41.4375 
Q 34.09375 39.09375 34.09375 35.5 
L 34.09375 1.796875 
Q 34.09375 0 31.796875 0 
L 28.59375 0 
Q 26.296875 0 26.296875 1.796875 
L 26.296875 38.40625 
Q 26.296875 40.59375 24.84375 42.1875 
Q 23.40625 43.796875 21.09375 43.796875 
Q 18.09375 43.796875 16.34375 41.390625 
Q 14.59375 39 14.59375 35.5 
L 14.59375 1.796875 
Q 14.59375 0 12.296875 0 
L 8.90625 0 
Q 6.59375 0 6.59375 1.796875 
L 6.59375 48.203125 
Q 6.59375 50 8.90625 50 
L 12.203125 50 
Q 14.40625 50 14.40625 48.203125 
L 14.40625 46.296875 
Q 17.5 50.796875 22.796875 50.796875 
Q 25.40625 50.796875 27.25 49.84375 
Q 29.09375 48.90625 29.796875 47.953125 
Q 30.5 47 31.40625 45.203125 
Q 35.40625 50.796875 41.59375 50.796875 
Q 47.203125 50.796875 50.296875 47.046875 
Q 53.40625 43.296875 53.40625 37.5 
L 53.40625 1.796875 
Q 53.40625 0 51.09375 0 
L 47.703125 0 
Q 45.40625 0 45.40625 1.796875 
z
" id="DecimaMonoPro-109"/>
    </defs>
    <g style="opacity:0.75;" transform="translate(124 72)scale(0.5 -0.5)">
     <use xlink:href="#DecimaMonoPro-101"/>
     <use x="59.999985" xlink:href="#DecimaMonoPro-120"/>
     <use x="119.999969" xlink:href="#DecimaMonoPro-97"/>
     <use x="179.999954" xlink:href="#DecimaMonoPro-109"/>
     <use x="239.999939" xlink:href="#DecimaMonoPro-112"/>
     <use x="299.999924" xlink:href="#DecimaMonoPro-108"/>
     <use x="359.999908" xlink:href="#DecimaMonoPro-101"/>
    </g>
   </g>
   <g id="legend_4">
    <g id="patch_26">
     <path d="M 1249.8 1182.182609 
L 1372.6 1182.182609 
Q 1375.4 1182.182609 1375.4 1179.382609 
L 1375.4 1162.182609 
Q 1375.4 1159.382609 1372.6 1159.382609 
L 1249.8 1159.382609 
Q 1247 1159.382609 1247 1162.182609 
L 1247 1179.382609 
Q 1247 1182.182609 1249.8 1182.182609 
z
" style="fill:#f0f0f0;opacity:0.8;stroke:#cccccc;stroke-linejoin:miter;stroke-width:0.5;"/>
    </g>
    <g id="line2d_131">
     <path d="M 1252.6 1169.882609 
L 1280.6 1169.882609 
" style="fill:none;stroke:#a300cf;stroke-width:3;"/>
    </g>
    <g id="line2d_132"/>
    <g id="text_69">
     <!-- validate_top1 -->
     <g style="opacity:0.75;" transform="translate(1291.8 1174.782609)scale(0.1 -0.1)">
      <use xlink:href="#DecimaMonoPro-118"/>
      <use x="59.999985" xlink:href="#DecimaMonoPro-97"/>
      <use x="119.999969" xlink:href="#DecimaMonoPro-108"/>
      <use x="179.999954" xlink:href="#DecimaMonoPro-105"/>
      <use x="239.999939" xlink:href="#DecimaMonoPro-100"/>
      <use x="299.999924" xlink:href="#DecimaMonoPro-97"/>
      <use x="359.999908" xlink:href="#DecimaMonoPro-116"/>
      <use x="419.999893" xlink:href="#DecimaMonoPro-101"/>
      <use x="479.999878" xlink:href="#DecimaMonoPro-95"/>
      <use x="539.999863" xlink:href="#DecimaMonoPro-116"/>
      <use x="599.999847" xlink:href="#DecimaMonoPro-111"/>
      <use x="659.999832" xlink:href="#DecimaMonoPro-112"/>
      <use x="719.999817" xlink:href="#DecimaMonoPro-49"/>
     </g>
    </g>
   </g>
  </g>
 </g>
 <defs>
  <clipPath id="pb9c6cf05f8">
   <rect height="250.434783" width="1267.2" x="115.2" y="144"/>
  </clipPath>
  <clipPath id="p165310aeff">
   <rect height="250.434783" width="1267.2" x="115.2" y="444.521739"/>
  </clipPath>
  <clipPath id="pb80b36193c">
   <rect height="250.434783" width="1267.2" x="115.2" y="745.043478"/>
  </clipPath>
  <clipPath id="p06cf64fd54">
   <rect height="250.434783" width="1267.2" x="115.2" y="1045.565217"/>
  </clipPath>
 </defs>
</svg>
